solid OpenSCAD_Model
  facet normal 1 -0 0
    outer loop
      vertex 6 15 3
      vertex 6 15.5 0
      vertex 6 15.5 3
    endloop
  endfacet
  facet normal 1 -0 0
    outer loop
      vertex 6 10.4 3
      vertex 6 15.5 0
      vertex 6 15 3
    endloop
  endfacet
  facet normal 1 0 0
    outer loop
      vertex 6 8.5 0
      vertex 6 10.4 3
      vertex 6 8.5 3
    endloop
  endfacet
  facet normal 1 0 0
    outer loop
      vertex 6 10.4 3
      vertex 6 8.5 0
      vertex 6 15.5 0
    endloop
  endfacet
  facet normal 1 -0 0
    outer loop
      vertex 6 18 3
      vertex 6 81 0
      vertex 6 81 3
    endloop
  endfacet
  facet normal 1 0 0
    outer loop
      vertex 6 81 0
      vertex 6 18 3
      vertex 6 18 0
    endloop
  endfacet
  facet normal 1 -0 0
    outer loop
      vertex 6 4 3
      vertex 6 6 0
      vertex 6 6 3
    endloop
  endfacet
  facet normal 1 0 0
    outer loop
      vertex 6 6 0
      vertex 6 4 3
      vertex 6 4 0
    endloop
  endfacet
  facet normal 1 -0 0
    outer loop
      vertex 6 83.5 3
      vertex 6 128.5 0
      vertex 6 128.5 3
    endloop
  endfacet
  facet normal 1 0 0
    outer loop
      vertex 6 128.5 0
      vertex 6 83.5 3
      vertex 6 83.5 0
    endloop
  endfacet
  facet normal 1 -0 0
    outer loop
      vertex 6 131 3
      vertex 6 133 0
      vertex 6 133 3
    endloop
  endfacet
  facet normal 1 0 0
    outer loop
      vertex 6 133 0
      vertex 6 131 3
      vertex 6 131 0
    endloop
  endfacet
  facet normal -0 0 1
    outer loop
      vertex 0 81 3
      vertex 6 18 3
      vertex 6 81 3
    endloop
  endfacet
  facet normal 0 0 1
    outer loop
      vertex 6 18 3
      vertex 0 81 3
      vertex 0 18 3
    endloop
  endfacet
  facet normal -0 0 1
    outer loop
      vertex 0 128.5 3
      vertex 6 83.5 3
      vertex 6 128.5 3
    endloop
  endfacet
  facet normal 0 0 1
    outer loop
      vertex 6 83.5 3
      vertex 0 128.5 3
      vertex 0 83.5 3
    endloop
  endfacet
  facet normal -0 0 1
    outer loop
      vertex 37.2832 83.9487 3
      vertex 42 83.5 3
      vertex 42 128.5 3
    endloop
  endfacet
  facet normal 0 0 1
    outer loop
      vertex 42 83.5 3
      vertex 38.7961 83.5433 3
      vertex 38.8839 83.5 3
    endloop
  endfacet
  facet normal 0 0 1
    outer loop
      vertex 42 83.5 3
      vertex 38.0529 83.7956 3
      vertex 38.7961 83.5433 3
    endloop
  endfacet
  facet normal 0 0 1
    outer loop
      vertex 42 83.5 3
      vertex 37.2832 83.9487 3
      vertex 38.0529 83.7956 3
    endloop
  endfacet
  facet normal -0 0 1
    outer loop
      vertex 36 128.5 3
      vertex 37.2832 83.9487 3
      vertex 42 128.5 3
    endloop
  endfacet
  facet normal 0 0 1
    outer loop
      vertex 37.2832 83.9487 3
      vertex 36 128.5 3
      vertex 36.5 84 3
    endloop
  endfacet
  facet normal 0 0 1
    outer loop
      vertex 36.5 84 3
      vertex 36 128.5 3
      vertex 36 83.9672 3
    endloop
  endfacet
  facet normal 0 -0 1
    outer loop
      vertex 42 80.3839 3
      vertex 42 81 3
      vertex 41.6962 81 3
    endloop
  endfacet
  facet normal -0 0 1
    outer loop
      vertex 41.6962 75 3
      vertex 42 18 3
      vertex 42 75.6161 3
    endloop
  endfacet
  facet normal -0 0 1
    outer loop
      vertex 41.2601 74.3474 3
      vertex 42 18 3
      vertex 41.6962 75 3
    endloop
  endfacet
  facet normal -0 0 1
    outer loop
      vertex 40.7426 73.7574 3
      vertex 42 18 3
      vertex 41.2601 74.3474 3
    endloop
  endfacet
  facet normal -0 0 1
    outer loop
      vertex 40.1526 73.2399 3
      vertex 42 18 3
      vertex 40.7426 73.7574 3
    endloop
  endfacet
  facet normal -0 0 1
    outer loop
      vertex 39.5 72.8038 3
      vertex 42 18 3
      vertex 40.1526 73.2399 3
    endloop
  endfacet
  facet normal -0 0 1
    outer loop
      vertex 38.7961 72.4567 3
      vertex 42 18 3
      vertex 39.5 72.8038 3
    endloop
  endfacet
  facet normal -0 0 1
    outer loop
      vertex 38.0529 72.2044 3
      vertex 42 18 3
      vertex 38.7961 72.4567 3
    endloop
  endfacet
  facet normal -0 0 1
    outer loop
      vertex 37.2832 72.0513 3
      vertex 42 18 3
      vertex 38.0529 72.2044 3
    endloop
  endfacet
  facet normal 0 0 1
    outer loop
      vertex 36 18 3
      vertex 37.2832 72.0513 3
      vertex 36.5 72 3
    endloop
  endfacet
  facet normal 0 0 1
    outer loop
      vertex 36 18 3
      vertex 36.5 72 3
      vertex 36 72.0328 3
    endloop
  endfacet
  facet normal 0 0 1
    outer loop
      vertex 37.2832 72.0513 3
      vertex 36 18 3
      vertex 42 18 3
    endloop
  endfacet
  facet normal 0 0 1
    outer loop
      vertex 42 137 3
      vertex 36 133 3
      vertex 42 131 3
    endloop
  endfacet
  facet normal 0 0 1
    outer loop
      vertex 42 137 3
      vertex 6 133 3
      vertex 36 133 3
    endloop
  endfacet
  facet normal -0 0 1
    outer loop
      vertex 0 137 3
      vertex 6 133 3
      vertex 42 137 3
    endloop
  endfacet
  facet normal 0 0 1
    outer loop
      vertex 0 131 3
      vertex 6 133 3
      vertex 0 137 3
    endloop
  endfacet
  facet normal 0 0 1
    outer loop
      vertex 6 133 3
      vertex 0 131 3
      vertex 6 131 3
    endloop
  endfacet
  facet normal 0 0 1
    outer loop
      vertex 42 131 3
      vertex 36 133 3
      vertex 36 131 3
    endloop
  endfacet
  facet normal 0 0 1
    outer loop
      vertex 6 6 3
      vertex 0 6 3
      vertex 6 4 3
    endloop
  endfacet
  facet normal 0 0 1
    outer loop
      vertex 36 4 3
      vertex 42 6 3
      vertex 36 6 3
    endloop
  endfacet
  facet normal 0 0 1
    outer loop
      vertex 42 6 3
      vertex 36 4 3
      vertex 42 0 3
    endloop
  endfacet
  facet normal -0 0 1
    outer loop
      vertex 6 4 3
      vertex 42 0 3
      vertex 36 4 3
    endloop
  endfacet
  facet normal 0 0 1
    outer loop
      vertex 6 4 3
      vertex 0 0 3
      vertex 42 0 3
    endloop
  endfacet
  facet normal 0 0 1
    outer loop
      vertex 0 0 3
      vertex 6 4 3
      vertex 0 6 3
    endloop
  endfacet
  facet normal -0 0 1
    outer loop
      vertex 0 15.5 3
      vertex 6 15 3
      vertex 6 15.5 3
    endloop
  endfacet
  facet normal 0 0 1
    outer loop
      vertex 6 15 3
      vertex 0 15.5 3
      vertex 0 15 3
    endloop
  endfacet
  facet normal -0 0 1
    outer loop
      vertex 36 15.5 3
      vertex 42 15 3
      vertex 42 15.5 3
    endloop
  endfacet
  facet normal 0 0 1
    outer loop
      vertex 42 15 3
      vertex 36 15.5 3
      vertex 36 15 3
    endloop
  endfacet
  facet normal -0 0 1
    outer loop
      vertex 0 10.4 3
      vertex 6 8.5 3
      vertex 6 10.4 3
    endloop
  endfacet
  facet normal 0 0 1
    outer loop
      vertex 6 8.5 3
      vertex 0 10.4 3
      vertex 0 8.5 3
    endloop
  endfacet
  facet normal -0 0 1
    outer loop
      vertex 36 10.4 3
      vertex 42 8.5 3
      vertex 42 10.4 3
    endloop
  endfacet
  facet normal 0 0 1
    outer loop
      vertex 42 8.5 3
      vertex 36 10.4 3
      vertex 36 8.5 3
    endloop
  endfacet
  facet normal -0 0 1
    outer loop
      vertex 0 15 3
      vertex 6 10.4 3
      vertex 6 15 3
    endloop
  endfacet
  facet normal 0 0 1
    outer loop
      vertex 6 10.4 3
      vertex 0 15 3
      vertex 0 10.4 3
    endloop
  endfacet
  facet normal -0 0 1
    outer loop
      vertex 36 15 3
      vertex 42 10.4 3
      vertex 42 15 3
    endloop
  endfacet
  facet normal 0 0 1
    outer loop
      vertex 42 10.4 3
      vertex 36 15 3
      vertex 36 10.4 3
    endloop
  endfacet
  facet normal -0 0 1
    outer loop
      vertex 10.9 15 3
      vertex 12.7 10.4 3
      vertex 12.7 15 3
    endloop
  endfacet
  facet normal 0 0 1
    outer loop
      vertex 12.7 10.4 3
      vertex 10.9 15 3
      vertex 10.9 10.4 3
    endloop
  endfacet
  facet normal -0 0 1
    outer loop
      vertex 29.3 15 3
      vertex 31.1 10.4 3
      vertex 31.1 15 3
    endloop
  endfacet
  facet normal 0 0 1
    outer loop
      vertex 31.1 10.4 3
      vertex 29.3 15 3
      vertex 29.3 10.4 3
    endloop
  endfacet
  facet normal 0 0 -1
    outer loop
      vertex 6 6 0
      vertex 10.9 8.5 0
      vertex 10.9 6 0
    endloop
  endfacet
  facet normal -0 0 -1
    outer loop
      vertex 10.9 8.5 0
      vertex 6 6 0
      vertex 6 8.5 0
    endloop
  endfacet
  facet normal 0 0 -1
    outer loop
      vertex 29.3 6 0
      vertex 31.1 6 0
      vertex 31.1 4.2 0
    endloop
  endfacet
  facet normal 0 0 -1
    outer loop
      vertex 31.1 6 0
      vertex 29.3 6 0
      vertex 31.1 8.5 0
    endloop
  endfacet
  facet normal -0 0 -1
    outer loop
      vertex 31.1 8.5 0
      vertex 29.3 6 0
      vertex 31.1 15.5 0
    endloop
  endfacet
  facet normal 0 0 -1
    outer loop
      vertex 31.1 4.2 0
      vertex 12.7 6 0
      vertex 29.3 6 0
    endloop
  endfacet
  facet normal 0 0 -1
    outer loop
      vertex 10.9 4.2 0
      vertex 12.7 6 0
      vertex 31.1 4.2 0
    endloop
  endfacet
  facet normal 0 0 -1
    outer loop
      vertex 10.9 6 0
      vertex 12.7 6 0
      vertex 10.9 4.2 0
    endloop
  endfacet
  facet normal 0 0 -1
    outer loop
      vertex 10.9 8.5 0
      vertex 12.7 6 0
      vertex 10.9 6 0
    endloop
  endfacet
  facet normal 0 0 -1
    outer loop
      vertex 12.7 6 0
      vertex 10.9 8.5 0
      vertex 12.7 18 0
    endloop
  endfacet
  facet normal 0 0 -1
    outer loop
      vertex 10.9 15.5 0
      vertex 12.7 18 0
      vertex 10.9 8.5 0
    endloop
  endfacet
  facet normal 0 0 -1
    outer loop
      vertex 6 18 0
      vertex 10.9 15.5 0
      vertex 6 15.5 0
    endloop
  endfacet
  facet normal 0 0 -1
    outer loop
      vertex 10.9 15.5 0
      vertex 6 18 0
      vertex 12.7 18 0
    endloop
  endfacet
  facet normal 0 0 -1
    outer loop
      vertex 31.1 15.5 0
      vertex 36 18 0
      vertex 36 15.5 0
    endloop
  endfacet
  facet normal 0 0 -1
    outer loop
      vertex 31.1 15.5 0
      vertex 29.3 18 0
      vertex 36 18 0
    endloop
  endfacet
  facet normal 0 0 -1
    outer loop
      vertex 29.3 18 0
      vertex 31.1 15.5 0
      vertex 29.3 6 0
    endloop
  endfacet
  facet normal 0 0 -1
    outer loop
      vertex 31.1 6 0
      vertex 36 8.5 0
      vertex 36 6 0
    endloop
  endfacet
  facet normal -0 0 -1
    outer loop
      vertex 36 8.5 0
      vertex 31.1 6 0
      vertex 31.1 8.5 0
    endloop
  endfacet
  facet normal 0 0 -1
    outer loop
      vertex 36 18 0
      vertex 42 75.6161 0
      vertex 42 0 0
    endloop
  endfacet
  facet normal 0 0 -1
    outer loop
      vertex 42 75.6161 0
      vertex 36 18 0
      vertex 41.6962 75 0
    endloop
  endfacet
  facet normal 0 0 -1
    outer loop
      vertex 41.6962 75 0
      vertex 36 18 0
      vertex 41.2601 74.3474 0
    endloop
  endfacet
  facet normal 0 0 -1
    outer loop
      vertex 41.2601 74.3474 0
      vertex 36 18 0
      vertex 40.7426 73.7574 0
    endloop
  endfacet
  facet normal 0 0 -1
    outer loop
      vertex 40.7426 73.7574 0
      vertex 36 18 0
      vertex 40.1526 73.2399 0
    endloop
  endfacet
  facet normal 0 0 -1
    outer loop
      vertex 40.1526 73.2399 0
      vertex 36 18 0
      vertex 39.5 72.8038 0
    endloop
  endfacet
  facet normal 0 0 -1
    outer loop
      vertex 39.5 72.8038 0
      vertex 36 18 0
      vertex 38.7961 72.4567 0
    endloop
  endfacet
  facet normal 0 0 -1
    outer loop
      vertex 38.7961 72.4567 0
      vertex 36 18 0
      vertex 38.0529 72.2044 0
    endloop
  endfacet
  facet normal 0 0 -1
    outer loop
      vertex 38.0529 72.2044 0
      vertex 36 18 0
      vertex 37.2832 72.0513 0
    endloop
  endfacet
  facet normal 0 0 -1
    outer loop
      vertex 36 6 0
      vertex 42 0 0
      vertex 36 4 0
    endloop
  endfacet
  facet normal 0 0 -1
    outer loop
      vertex 42 0 0
      vertex 6 4 0
      vertex 36 4 0
    endloop
  endfacet
  facet normal 0 0 -1
    outer loop
      vertex 0 0 0
      vertex 6 6 0
      vertex 6 4 0
    endloop
  endfacet
  facet normal -0 0 -1
    outer loop
      vertex 6 6 0
      vertex 0 0 0
      vertex 6 8.5 0
    endloop
  endfacet
  facet normal -0 0 -1
    outer loop
      vertex 6 8.5 0
      vertex 0 0 0
      vertex 6 15.5 0
    endloop
  endfacet
  facet normal -0 0 -1
    outer loop
      vertex 6 15.5 0
      vertex 0 0 0
      vertex 6 18 0
    endloop
  endfacet
  facet normal -0 0 -1
    outer loop
      vertex 6 18 0
      vertex 0 0 0
      vertex 6 81 0
    endloop
  endfacet
  facet normal 0 0 -1
    outer loop
      vertex 0 137 0
      vertex 6 81 0
      vertex 0 0 0
    endloop
  endfacet
  facet normal 0 0 -1
    outer loop
      vertex 6 81 0
      vertex 0 137 0
      vertex 6 83.5 0
    endloop
  endfacet
  facet normal 0 0 -1
    outer loop
      vertex 6 83.5 0
      vertex 0 137 0
      vertex 6 128.5 0
    endloop
  endfacet
  facet normal 0 0 -1
    outer loop
      vertex 6 128.5 0
      vertex 0 137 0
      vertex 6 131 0
    endloop
  endfacet
  facet normal 0 0 -1
    outer loop
      vertex 0 0 0
      vertex 6 4 0
      vertex 42 0 0
    endloop
  endfacet
  facet normal 0 0 -1
    outer loop
      vertex 36 8.5 0
      vertex 42 0 0
      vertex 36 6 0
    endloop
  endfacet
  facet normal 0 0 -1
    outer loop
      vertex 36 15.5 0
      vertex 42 0 0
      vertex 36 8.5 0
    endloop
  endfacet
  facet normal 0 0 -1
    outer loop
      vertex 36 18 0
      vertex 42 0 0
      vertex 36 15.5 0
    endloop
  endfacet
  facet normal 0 0 -1
    outer loop
      vertex 37.2832 72.0513 0
      vertex 36 18 0
      vertex 36.5 72 0
    endloop
  endfacet
  facet normal -0 0 -1
    outer loop
      vertex 36.5 72 0
      vertex 36 18 0
      vertex 36 72.0328 0
    endloop
  endfacet
  facet normal 0 0 -1
    outer loop
      vertex 12.7 81 0
      vertex 10.9 83.5 0
      vertex 12.7 131 0
    endloop
  endfacet
  facet normal 0 0 -1
    outer loop
      vertex 6 81 0
      vertex 10.9 83.5 0
      vertex 12.7 81 0
    endloop
  endfacet
  facet normal -0 0 -1
    outer loop
      vertex 10.9 83.5 0
      vertex 6 81 0
      vertex 6 83.5 0
    endloop
  endfacet
  facet normal 0 0 -1
    outer loop
      vertex 10.9 128.5 0
      vertex 12.7 131 0
      vertex 10.9 83.5 0
    endloop
  endfacet
  facet normal 0 0 -1
    outer loop
      vertex 6 131 0
      vertex 10.9 128.5 0
      vertex 6 128.5 0
    endloop
  endfacet
  facet normal 0 0 -1
    outer loop
      vertex 10.9 128.5 0
      vertex 6 131 0
      vertex 12.7 131 0
    endloop
  endfacet
  facet normal 0 0 -1
    outer loop
      vertex 33.5 83.1962 0
      vertex 31.1 83.5 0
      vertex 34.1161 83.5 0
    endloop
  endfacet
  facet normal 0 0 -1
    outer loop
      vertex 32.8474 82.7601 0
      vertex 31.1 83.5 0
      vertex 33.5 83.1962 0
    endloop
  endfacet
  facet normal 0 0 -1
    outer loop
      vertex 32.2574 82.2426 0
      vertex 31.1 83.5 0
      vertex 32.8474 82.7601 0
    endloop
  endfacet
  facet normal 0 0 -1
    outer loop
      vertex 31.7399 81.6526 0
      vertex 31.1 83.5 0
      vertex 32.2574 82.2426 0
    endloop
  endfacet
  facet normal 0 0 -1
    outer loop
      vertex 29.3 81 0
      vertex 31.7399 81.6526 0
      vertex 31.3038 81 0
    endloop
  endfacet
  facet normal -0 0 -1
    outer loop
      vertex 31.1 83.5 0
      vertex 29.3 81 0
      vertex 31.1 128.5 0
    endloop
  endfacet
  facet normal -0 0 -1
    outer loop
      vertex 31.7399 81.6526 0
      vertex 29.3 81 0
      vertex 31.1 83.5 0
    endloop
  endfacet
  facet normal 0 0 -1
    outer loop
      vertex 31.1 128.5 0
      vertex 36 131 0
      vertex 36 128.5 0
    endloop
  endfacet
  facet normal 0 0 -1
    outer loop
      vertex 31.1 128.5 0
      vertex 29.3 131 0
      vertex 36 131 0
    endloop
  endfacet
  facet normal 0 0 -1
    outer loop
      vertex 29.3 131 0
      vertex 31.1 128.5 0
      vertex 29.3 81 0
    endloop
  endfacet
  facet normal 0 0 -1
    outer loop
      vertex 41.6962 81 0
      vertex 42 137 0
      vertex 42 80.3839 0
    endloop
  endfacet
  facet normal 0 0 -1
    outer loop
      vertex 41.2601 81.6526 0
      vertex 42 137 0
      vertex 41.6962 81 0
    endloop
  endfacet
  facet normal 0 0 -1
    outer loop
      vertex 36 128.5 0
      vertex 41.2601 81.6526 0
      vertex 40.7426 82.2426 0
    endloop
  endfacet
  facet normal 0 0 -1
    outer loop
      vertex 36 128.5 0
      vertex 40.7426 82.2426 0
      vertex 40.1526 82.7601 0
    endloop
  endfacet
  facet normal 0 0 -1
    outer loop
      vertex 36 128.5 0
      vertex 40.1526 82.7601 0
      vertex 39.5 83.1962 0
    endloop
  endfacet
  facet normal 0 0 -1
    outer loop
      vertex 36 128.5 0
      vertex 39.5 83.1962 0
      vertex 38.7961 83.5433 0
    endloop
  endfacet
  facet normal 0 0 -1
    outer loop
      vertex 36 128.5 0
      vertex 38.7961 83.5433 0
      vertex 38.0529 83.7956 0
    endloop
  endfacet
  facet normal 0 0 -1
    outer loop
      vertex 36 128.5 0
      vertex 38.0529 83.7956 0
      vertex 37.2832 83.9487 0
    endloop
  endfacet
  facet normal 0 0 -1
    outer loop
      vertex 36 128.5 0
      vertex 37.2832 83.9487 0
      vertex 36.5 84 0
    endloop
  endfacet
  facet normal 0 0 -1
    outer loop
      vertex 36 128.5 0
      vertex 36.5 84 0
      vertex 36 83.9672 0
    endloop
  endfacet
  facet normal 0 0 -1
    outer loop
      vertex 41.2601 81.6526 0
      vertex 36 128.5 0
      vertex 42 137 0
    endloop
  endfacet
  facet normal 0 0 -1
    outer loop
      vertex 36 131 0
      vertex 42 137 0
      vertex 36 128.5 0
    endloop
  endfacet
  facet normal 0 0 -1
    outer loop
      vertex 36 133 0
      vertex 42 137 0
      vertex 36 131 0
    endloop
  endfacet
  facet normal 0 0 -1
    outer loop
      vertex 6 133 0
      vertex 42 137 0
      vertex 36 133 0
    endloop
  endfacet
  facet normal 0 0 -1
    outer loop
      vertex 6 133 0
      vertex 0 137 0
      vertex 42 137 0
    endloop
  endfacet
  facet normal 0 0 -1
    outer loop
      vertex 6 131 0
      vertex 0 137 0
      vertex 6 133 0
    endloop
  endfacet
  facet normal -1 0 0
    outer loop
      vertex 0 137 0
      vertex 0 131 3
      vertex 0 137 3
    endloop
  endfacet
  facet normal -1 0 0
    outer loop
      vertex 0 137 0
      vertex 0 128.5 3
      vertex 0 131 3
    endloop
  endfacet
  facet normal -1 0 0
    outer loop
      vertex 0 137 0
      vertex 0 83.5 3
      vertex 0 128.5 3
    endloop
  endfacet
  facet normal -1 0 0
    outer loop
      vertex 0 137 0
      vertex 0 81 3
      vertex 0 83.5 3
    endloop
  endfacet
  facet normal -1 0 0
    outer loop
      vertex 0 0 0
      vertex 0 81 3
      vertex 0 137 0
    endloop
  endfacet
  facet normal -1 -0 0
    outer loop
      vertex 0 81 3
      vertex 0 0 0
      vertex 0 18 3
    endloop
  endfacet
  facet normal -1 -0 0
    outer loop
      vertex 0 18 3
      vertex 0 0 0
      vertex 0 15.5 3
    endloop
  endfacet
  facet normal -1 -0 0
    outer loop
      vertex 0 15.5 3
      vertex 0 0 0
      vertex 0 15 3
    endloop
  endfacet
  facet normal -1 -0 0
    outer loop
      vertex 0 15 3
      vertex 0 0 0
      vertex 0 10.4 3
    endloop
  endfacet
  facet normal -1 -0 0
    outer loop
      vertex 0 10.4 3
      vertex 0 0 0
      vertex 0 8.5 3
    endloop
  endfacet
  facet normal -1 -0 0
    outer loop
      vertex 0 8.5 3
      vertex 0 0 0
      vertex 0 6 3
    endloop
  endfacet
  facet normal -1 -0 0
    outer loop
      vertex 0 6 3
      vertex 0 0 0
      vertex 0 0 3
    endloop
  endfacet
  facet normal 0 -1 0
    outer loop
      vertex 0 0 0
      vertex 42 0 3
      vertex 0 0 3
    endloop
  endfacet
  facet normal 0 -1 -0
    outer loop
      vertex 42 0 3
      vertex 0 0 0
      vertex 42 0 0
    endloop
  endfacet
  facet normal 0 1 -0
    outer loop
      vertex 42 137 0
      vertex 0 137 3
      vertex 42 137 3
    endloop
  endfacet
  facet normal 0 1 0
    outer loop
      vertex 0 137 3
      vertex 42 137 0
      vertex 0 137 0
    endloop
  endfacet
  facet normal 1 -0 0
    outer loop
      vertex 42 131 3
      vertex 42 137 0
      vertex 42 137 3
    endloop
  endfacet
  facet normal 1 -0 0
    outer loop
      vertex 42 128.5 3
      vertex 42 137 0
      vertex 42 131 3
    endloop
  endfacet
  facet normal 1 0 0
    outer loop
      vertex 42 80.3839 0
      vertex 42 128.5 3
      vertex 42 83.5 3
    endloop
  endfacet
  facet normal 1 0 0
    outer loop
      vertex 42 80.3839 0
      vertex 42 83.5 3
      vertex 42 81 3
    endloop
  endfacet
  facet normal 1 0 0
    outer loop
      vertex 42 80.3839 0
      vertex 42 81 3
      vertex 42 80.3839 3
    endloop
  endfacet
  facet normal 1 0 0
    outer loop
      vertex 42 128.5 3
      vertex 42 80.3839 0
      vertex 42 137 0
    endloop
  endfacet
  facet normal 1 -0 0
    outer loop
      vertex 42 18 3
      vertex 42 75.6161 0
      vertex 42 75.6161 3
    endloop
  endfacet
  facet normal 1 0 0
    outer loop
      vertex 42 0 0
      vertex 42 18 3
      vertex 42 15.5 3
    endloop
  endfacet
  facet normal 1 0 0
    outer loop
      vertex 42 0 0
      vertex 42 15.5 3
      vertex 42 15 3
    endloop
  endfacet
  facet normal 1 0 0
    outer loop
      vertex 42 0 0
      vertex 42 15 3
      vertex 42 10.4 3
    endloop
  endfacet
  facet normal 1 0 0
    outer loop
      vertex 42 0 0
      vertex 42 10.4 3
      vertex 42 8.5 3
    endloop
  endfacet
  facet normal 1 0 0
    outer loop
      vertex 42 0 0
      vertex 42 8.5 3
      vertex 42 6 3
    endloop
  endfacet
  facet normal 1 0 0
    outer loop
      vertex 42 0 0
      vertex 42 6 3
      vertex 42 0 3
    endloop
  endfacet
  facet normal 1 0 0
    outer loop
      vertex 42 18 3
      vertex 42 0 0
      vertex 42 75.6161 0
    endloop
  endfacet
  facet normal -1 0 0
    outer loop
      vertex 36 18 0
      vertex 36 72.0328 3
      vertex 36 72.0328 0
    endloop
  endfacet
  facet normal -1 -0 0
    outer loop
      vertex 36 72.0328 3
      vertex 36 18 0
      vertex 36 18 3
    endloop
  endfacet
  facet normal -1 0 0
    outer loop
      vertex 36 15.5 0
      vertex 36 15 3
      vertex 36 15.5 3
    endloop
  endfacet
  facet normal -1 0 0
    outer loop
      vertex 36 15.5 0
      vertex 36 10.4 3
      vertex 36 15 3
    endloop
  endfacet
  facet normal -1 0 0
    outer loop
      vertex 36 8.5 0
      vertex 36 10.4 3
      vertex 36 15.5 0
    endloop
  endfacet
  facet normal -1 -0 0
    outer loop
      vertex 36 10.4 3
      vertex 36 8.5 0
      vertex 36 8.5 3
    endloop
  endfacet
  facet normal -1 0 0
    outer loop
      vertex 36 4 0
      vertex 36 6 3
      vertex 36 6 0
    endloop
  endfacet
  facet normal -1 -0 0
    outer loop
      vertex 36 6 3
      vertex 36 4 0
      vertex 36 4 3
    endloop
  endfacet
  facet normal -1 0 0
    outer loop
      vertex 36 131 0
      vertex 36 133 3
      vertex 36 133 0
    endloop
  endfacet
  facet normal -1 -0 0
    outer loop
      vertex 36 133 3
      vertex 36 131 0
      vertex 36 131 3
    endloop
  endfacet
  facet normal -1 0 0
    outer loop
      vertex 36 83.9672 0
      vertex 36 128.5 3
      vertex 36 128.5 0
    endloop
  endfacet
  facet normal -1 -0 0
    outer loop
      vertex 36 128.5 3
      vertex 36 83.9672 0
      vertex 36 83.9672 3
    endloop
  endfacet
  facet normal 1 0 0
    outer loop
      vertex 12.7 123 10
      vertex 12.7 131 60
      vertex 12.7 123 60
    endloop
  endfacet
  facet normal 1 0 0
    outer loop
      vertex 12.7 131 60
      vertex 12.7 123 10
      vertex 12.7 131 0
    endloop
  endfacet
  facet normal 1 0 0
    outer loop
      vertex 12.7 81 0
      vertex 12.7 123 10
      vertex 12.7 81 10
    endloop
  endfacet
  facet normal 1 0 0
    outer loop
      vertex 12.7 123 10
      vertex 12.7 81 0
      vertex 12.7 131 0
    endloop
  endfacet
  facet normal 1 0 0
    outer loop
      vertex 12.7 18 76
      vertex 12.7 15 5.4
      vertex 12.7 18 0
    endloop
  endfacet
  facet normal 1 0 0
    outer loop
      vertex 12.7 18 76
      vertex 12.7 10.4 5.4
      vertex 12.7 15 5.4
    endloop
  endfacet
  facet normal 1 0 0
    outer loop
      vertex 12.7 6 0
      vertex 12.7 10.4 5.4
      vertex 12.7 6 76
    endloop
  endfacet
  facet normal 1 -0 0
    outer loop
      vertex 12.7 6 76
      vertex 12.7 10.4 5.4
      vertex 12.7 18 76
    endloop
  endfacet
  facet normal 1 -0 0
    outer loop
      vertex 12.7 15 3
      vertex 12.7 18 0
      vertex 12.7 15 5.4
    endloop
  endfacet
  facet normal 1 -0 0
    outer loop
      vertex 12.7 10.4 3
      vertex 12.7 18 0
      vertex 12.7 15 3
    endloop
  endfacet
  facet normal 1 0 0
    outer loop
      vertex 12.7 10.4 3
      vertex 12.7 6 0
      vertex 12.7 18 0
    endloop
  endfacet
  facet normal 1 0 0
    outer loop
      vertex 12.7 10.4 5.4
      vertex 12.7 6 0
      vertex 12.7 10.4 3
    endloop
  endfacet
  facet normal -0 0 1
    outer loop
      vertex 10.9 123 10
      vertex 12.7 81 10
      vertex 12.7 123 10
    endloop
  endfacet
  facet normal 0 0 1
    outer loop
      vertex 12.7 81 10
      vertex 10.9 123 10
      vertex 10.9 81 10
    endloop
  endfacet
  facet normal -1 0 0
    outer loop
      vertex 10.9 128.5 0
      vertex 10.9 123 10
      vertex 10.9 128.5 45
    endloop
  endfacet
  facet normal -1 0 0
    outer loop
      vertex 10.9 83.5 0
      vertex 10.9 123 10
      vertex 10.9 128.5 0
    endloop
  endfacet
  facet normal -1 0 0
    outer loop
      vertex 10.9 83.5 8
      vertex 10.9 123 10
      vertex 10.9 83.5 0
    endloop
  endfacet
  facet normal -1 0 0
    outer loop
      vertex 10.9 81 10
      vertex 10.9 83.5 8
      vertex 10.9 81 8
    endloop
  endfacet
  facet normal -1 0 0
    outer loop
      vertex 10.9 83.5 8
      vertex 10.9 81 10
      vertex 10.9 123 10
    endloop
  endfacet
  facet normal -1 0 0
    outer loop
      vertex 10.9 128.5 45
      vertex 10.9 131 60
      vertex 10.9 131 45
    endloop
  endfacet
  facet normal -1 0 0
    outer loop
      vertex 10.9 128.5 45
      vertex 10.9 123 60
      vertex 10.9 131 60
    endloop
  endfacet
  facet normal -1 0 0
    outer loop
      vertex 10.9 123 60
      vertex 10.9 128.5 45
      vertex 10.9 123 10
    endloop
  endfacet
  facet normal 0 -1 0
    outer loop
      vertex 10.9 81 8
      vertex 12.7 81 10
      vertex 10.9 81 10
    endloop
  endfacet
  facet normal 0 -1 0
    outer loop
      vertex 6 81 3
      vertex 10.9 81 8
      vertex 0 81 3
    endloop
  endfacet
  facet normal 0 -1 0
    outer loop
      vertex 12.7 81 0
      vertex 6 81 3
      vertex 6 81 0
    endloop
  endfacet
  facet normal 0 -1 0
    outer loop
      vertex 6 81 3
      vertex 12.7 81 0
      vertex 10.9 81 8
    endloop
  endfacet
  facet normal 0 -1 0
    outer loop
      vertex 10.9 81 8
      vertex 12.7 81 0
      vertex 12.7 81 10
    endloop
  endfacet
  facet normal 0 1 0
    outer loop
      vertex 12.7 131 60
      vertex 10.9 131 45
      vertex 10.9 131 60
    endloop
  endfacet
  facet normal 0 1 -0
    outer loop
      vertex 12.7 131 0
      vertex 10.9 131 45
      vertex 12.7 131 60
    endloop
  endfacet
  facet normal 0 1 0
    outer loop
      vertex 10.9 131 45
      vertex 12.7 131 0
      vertex 6 131 3
    endloop
  endfacet
  facet normal 0 1 0
    outer loop
      vertex 6 131 3
      vertex 12.7 131 0
      vertex 6 131 0
    endloop
  endfacet
  facet normal 0 1 0
    outer loop
      vertex 10.9 131 45
      vertex 6 131 3
      vertex 0 131 3
    endloop
  endfacet
  facet normal 1 -0 0
    outer loop
      vertex 31.1 81 10
      vertex 31.1 83.5 8
      vertex 31.1 123 10
    endloop
  endfacet
  facet normal 1 0 0
    outer loop
      vertex 31.1 83.5 8
      vertex 31.1 81 10
      vertex 31.1 81 8
    endloop
  endfacet
  facet normal 1 0 0
    outer loop
      vertex 31.1 131 60
      vertex 31.1 128.5 45
      vertex 31.1 131 45
    endloop
  endfacet
  facet normal 1 -0 0
    outer loop
      vertex 31.1 123 60
      vertex 31.1 128.5 45
      vertex 31.1 131 60
    endloop
  endfacet
  facet normal 1 0 0
    outer loop
      vertex 31.1 123 10
      vertex 31.1 128.5 45
      vertex 31.1 123 60
    endloop
  endfacet
  facet normal 1 0 0
    outer loop
      vertex 31.1 128.5 45
      vertex 31.1 123 10
      vertex 31.1 128.5 0
    endloop
  endfacet
  facet normal 1 0 0
    outer loop
      vertex 31.1 83.5 0
      vertex 31.1 123 10
      vertex 31.1 83.5 8
    endloop
  endfacet
  facet normal 1 0 0
    outer loop
      vertex 31.1 123 10
      vertex 31.1 83.5 0
      vertex 31.1 128.5 0
    endloop
  endfacet
  facet normal -0 0 1
    outer loop
      vertex 29.3 123 10
      vertex 31.1 81 10
      vertex 31.1 123 10
    endloop
  endfacet
  facet normal 0 0 1
    outer loop
      vertex 31.1 81 10
      vertex 29.3 123 10
      vertex 29.3 81 10
    endloop
  endfacet
  facet normal -1 0 0
    outer loop
      vertex 29.3 131 0
      vertex 29.3 123 10
      vertex 29.3 131 60
    endloop
  endfacet
  facet normal -1 0 0
    outer loop
      vertex 29.3 81 0
      vertex 29.3 123 10
      vertex 29.3 131 0
    endloop
  endfacet
  facet normal -1 -0 0
    outer loop
      vertex 29.3 123 10
      vertex 29.3 81 0
      vertex 29.3 81 10
    endloop
  endfacet
  facet normal -1 -0 0
    outer loop
      vertex 29.3 131 60
      vertex 29.3 123 10
      vertex 29.3 123 60
    endloop
  endfacet
  facet normal -1 0 0
    outer loop
      vertex 29.3 15 5.4
      vertex 29.3 18 0
      vertex 29.3 15 3
    endloop
  endfacet
  facet normal -1 0 0
    outer loop
      vertex 29.3 18 0
      vertex 29.3 10.4 3
      vertex 29.3 15 3
    endloop
  endfacet
  facet normal -1 -0 0
    outer loop
      vertex 29.3 10.4 3
      vertex 29.3 6 0
      vertex 29.3 10.4 5.4
    endloop
  endfacet
  facet normal -1 0 0
    outer loop
      vertex 29.3 6 0
      vertex 29.3 10.4 3
      vertex 29.3 18 0
    endloop
  endfacet
  facet normal -1 0 0
    outer loop
      vertex 29.3 18 0
      vertex 29.3 15 5.4
      vertex 29.3 18 76
    endloop
  endfacet
  facet normal -1 0 0
    outer loop
      vertex 29.3 10.4 5.4
      vertex 29.3 18 76
      vertex 29.3 15 5.4
    endloop
  endfacet
  facet normal -1 0 0
    outer loop
      vertex 29.3 6 76
      vertex 29.3 10.4 5.4
      vertex 29.3 6 0
    endloop
  endfacet
  facet normal -1 0 0
    outer loop
      vertex 29.3 10.4 5.4
      vertex 29.3 6 76
      vertex 29.3 18 76
    endloop
  endfacet
  facet normal 0 -1 0
    outer loop
      vertex 29.3 81 10
      vertex 31.1 81 8
      vertex 31.1 81 10
    endloop
  endfacet
  facet normal 0 -1 0
    outer loop
      vertex 29.3 81 0
      vertex 31.1 81 8
      vertex 29.3 81 10
    endloop
  endfacet
  facet normal 0 -1 0
    outer loop
      vertex 29.3 81 0
      vertex 31.3038 81 7.90649
      vertex 31.1 81 8
    endloop
  endfacet
  facet normal 0 -1 -0
    outer loop
      vertex 31.3038 81 7.90649
      vertex 29.3 81 0
      vertex 31.3038 81 0
    endloop
  endfacet
  facet normal 0 -1 0
    outer loop
      vertex 42 81 3
      vertex 41.6962 81 3.13938
      vertex 41.6962 81 3
    endloop
  endfacet
  facet normal 0 1 -0
    outer loop
      vertex 31.1 131 45
      vertex 29.3 131 60
      vertex 31.1 131 60
    endloop
  endfacet
  facet normal 0 1 -0
    outer loop
      vertex 36 131 3
      vertex 31.1 131 45
      vertex 42 131 3
    endloop
  endfacet
  facet normal 0 1 0
    outer loop
      vertex 29.3 131 0
      vertex 31.1 131 45
      vertex 36 131 3
    endloop
  endfacet
  facet normal 0 1 0
    outer loop
      vertex 29.3 131 0
      vertex 36 131 3
      vertex 36 131 0
    endloop
  endfacet
  facet normal 0 1 0
    outer loop
      vertex 31.1 131 45
      vertex 29.3 131 0
      vertex 29.3 131 60
    endloop
  endfacet
  facet normal -0 0 1
    outer loop
      vertex 10.9 131 60
      vertex 12.7 123 60
      vertex 12.7 131 60
    endloop
  endfacet
  facet normal 0 0 1
    outer loop
      vertex 12.7 123 60
      vertex 10.9 131 60
      vertex 10.9 123 60
    endloop
  endfacet
  facet normal 0 -1 0
    outer loop
      vertex 10.9 123 10
      vertex 12.7 123 60
      vertex 10.9 123 60
    endloop
  endfacet
  facet normal 0 -1 -0
    outer loop
      vertex 12.7 123 60
      vertex 10.9 123 10
      vertex 12.7 123 10
    endloop
  endfacet
  facet normal -0 0 1
    outer loop
      vertex 29.3 131 60
      vertex 31.1 123 60
      vertex 31.1 131 60
    endloop
  endfacet
  facet normal 0 0 1
    outer loop
      vertex 31.1 123 60
      vertex 29.3 131 60
      vertex 29.3 123 60
    endloop
  endfacet
  facet normal 0 -1 0
    outer loop
      vertex 29.3 123 10
      vertex 31.1 123 60
      vertex 29.3 123 60
    endloop
  endfacet
  facet normal 0 -1 -0
    outer loop
      vertex 31.1 123 60
      vertex 29.3 123 10
      vertex 31.1 123 10
    endloop
  endfacet
  facet normal -0.967935 0 0.251202
    outer loop
      vertex 0 128.5 3
      vertex 10.9 131 45
      vertex 0 131 3
    endloop
  endfacet
  facet normal -0.967935 0 0.251202
    outer loop
      vertex 10.9 131 45
      vertex 0 128.5 3
      vertex 10.9 128.5 45
    endloop
  endfacet
  facet normal 0 -1 0
    outer loop
      vertex 6 128.5 3
      vertex 10.9 128.5 45
      vertex 0 128.5 3
    endloop
  endfacet
  facet normal 0 -1 0
    outer loop
      vertex 10.9 128.5 0
      vertex 6 128.5 3
      vertex 6 128.5 0
    endloop
  endfacet
  facet normal 0 -1 0
    outer loop
      vertex 6 128.5 3
      vertex 10.9 128.5 0
      vertex 10.9 128.5 45
    endloop
  endfacet
  facet normal 0 -1 0
    outer loop
      vertex 31.1 128.5 0
      vertex 36 128.5 3
      vertex 31.1 128.5 45
    endloop
  endfacet
  facet normal 0 -1 -0
    outer loop
      vertex 36 128.5 3
      vertex 31.1 128.5 0
      vertex 36 128.5 0
    endloop
  endfacet
  facet normal 0 -1 0
    outer loop
      vertex 31.1 128.5 45
      vertex 36 128.5 3
      vertex 42 128.5 3
    endloop
  endfacet
  facet normal 0.967935 -0 0.251202
    outer loop
      vertex 31.1 128.5 45
      vertex 42 131 3
      vertex 31.1 131 45
    endloop
  endfacet
  facet normal 0.967935 0 0.251202
    outer loop
      vertex 42 131 3
      vertex 31.1 128.5 45
      vertex 42 128.5 3
    endloop
  endfacet
  facet normal -0.416942 0 0.908933
    outer loop
      vertex 0 83.5 3
      vertex 10.9 81 8
      vertex 10.9 83.5 8
    endloop
  endfacet
  facet normal -0.416942 0 0.908933
    outer loop
      vertex 10.9 81 8
      vertex 0 83.5 3
      vertex 0 81 3
    endloop
  endfacet
  facet normal 0 1 -0
    outer loop
      vertex 10.9 83.5 0
      vertex 6 83.5 3
      vertex 10.9 83.5 8
    endloop
  endfacet
  facet normal 0 1 0
    outer loop
      vertex 6 83.5 3
      vertex 10.9 83.5 0
      vertex 6 83.5 0
    endloop
  endfacet
  facet normal 0 1 0
    outer loop
      vertex 10.9 83.5 8
      vertex 6 83.5 3
      vertex 0 83.5 3
    endloop
  endfacet
  facet normal 0 1 0
    outer loop
      vertex 38.8839 83.5 4.42942
      vertex 42 83.5 3
      vertex 38.8839 83.5 3
    endloop
  endfacet
  facet normal 0 1 0
    outer loop
      vertex 31.1 83.5 0
      vertex 34.1161 83.5 6.61645
      vertex 34.1161 83.5 0
    endloop
  endfacet
  facet normal 0 1 0
    outer loop
      vertex 34.1161 83.5 6.61645
      vertex 31.1 83.5 0
      vertex 31.1 83.5 8
    endloop
  endfacet
  facet normal 0.416928 0 0.90894
    outer loop
      vertex 41.2601 81.6526 3.33939
      vertex 42 81 3
      vertex 42 83.5 3
    endloop
  endfacet
  facet normal 0.416997 9.43475e-05 0.908908
    outer loop
      vertex 42 81 3
      vertex 41.2601 81.6526 3.33939
      vertex 41.6962 81 3.13938
    endloop
  endfacet
  facet normal 0.416932 -2.04754e-06 0.908938
    outer loop
      vertex 42 83.5 3
      vertex 40.7426 82.2426 3.57677
      vertex 41.2601 81.6526 3.33939
    endloop
  endfacet
  facet normal 0.416962 -3.83341e-05 0.908924
    outer loop
      vertex 42 83.5 3
      vertex 40.1526 82.7601 3.84745
      vertex 40.7426 82.2426 3.57677
    endloop
  endfacet
  facet normal 0.416939 3.18523e-05 0.908935
    outer loop
      vertex 42 83.5 3
      vertex 39.5 83.1962 4.14679
      vertex 40.1526 82.7601 3.84745
    endloop
  endfacet
  facet normal 0.416946 -3.61788e-05 0.908931
    outer loop
      vertex 39.5 83.1962 4.14679
      vertex 42 83.5 3
      vertex 38.8839 83.5 4.42942
    endloop
  endfacet
  facet normal 0.416946 3.49054e-05 0.908931
    outer loop
      vertex 31.1 83.5 8
      vertex 33.5 83.1962 6.89908
      vertex 34.1161 83.5 6.61645
    endloop
  endfacet
  facet normal 0.416941 -1.48887e-05 0.908934
    outer loop
      vertex 31.1 83.5 8
      vertex 32.8474 82.7601 7.19843
      vertex 33.5 83.1962 6.89908
    endloop
  endfacet
  facet normal 0.416956 2.87818e-05 0.908927
    outer loop
      vertex 31.1 83.5 8
      vertex 32.2574 82.2426 7.4691
      vertex 32.8474 82.7601 7.19843
    endloop
  endfacet
  facet normal 0.416932 1.95069e-06 0.908938
    outer loop
      vertex 31.1 83.5 8
      vertex 31.7399 81.6526 7.70648
      vertex 32.2574 82.2426 7.4691
    endloop
  endfacet
  facet normal 0.416928 -0 0.90894
    outer loop
      vertex 31.1 81 8
      vertex 31.7399 81.6526 7.70648
      vertex 31.1 83.5 8
    endloop
  endfacet
  facet normal 0.417029 -0.000120774 0.908893
    outer loop
      vertex 31.7399 81.6526 7.70648
      vertex 31.1 81 8
      vertex 31.3038 81 7.90649
    endloop
  endfacet
  facet normal 0 0 1
    outer loop
      vertex 12.7 18 76
      vertex 10.9 18 76
      vertex 12.7 6 76
    endloop
  endfacet
  facet normal 0 0 1
    outer loop
      vertex 29.3 6 76
      vertex 31.1 18 76
      vertex 29.3 18 76
    endloop
  endfacet
  facet normal 0 0 1
    outer loop
      vertex 31.1 18 76
      vertex 29.3 6 76
      vertex 31.1 4.2 76
    endloop
  endfacet
  facet normal -0 0 1
    outer loop
      vertex 12.7 6 76
      vertex 31.1 4.2 76
      vertex 29.3 6 76
    endloop
  endfacet
  facet normal 0 0 1
    outer loop
      vertex 12.7 6 76
      vertex 10.9 4.2 76
      vertex 31.1 4.2 76
    endloop
  endfacet
  facet normal 0 0 1
    outer loop
      vertex 10.9 4.2 76
      vertex 12.7 6 76
      vertex 10.9 18 76
    endloop
  endfacet
  facet normal -1 0 0
    outer loop
      vertex 10.9 6 0
      vertex 10.9 4.2 0
      vertex 10.9 6 50
    endloop
  endfacet
  facet normal -1 0 0
    outer loop
      vertex 10.9 15 5.4
      vertex 10.9 15.5 0
      vertex 10.9 15 3
    endloop
  endfacet
  facet normal -1 0 0
    outer loop
      vertex 10.9 15.5 0
      vertex 10.9 10.4 3
      vertex 10.9 15 3
    endloop
  endfacet
  facet normal -1 -0 0
    outer loop
      vertex 10.9 10.4 3
      vertex 10.9 8.5 0
      vertex 10.9 10.4 5.4
    endloop
  endfacet
  facet normal -1 0 0
    outer loop
      vertex 10.9 8.5 0
      vertex 10.9 10.4 3
      vertex 10.9 15.5 0
    endloop
  endfacet
  facet normal -1 0 0
    outer loop
      vertex 10.9 8.5 50
      vertex 10.9 18 20
      vertex 10.9 15.5 20
    endloop
  endfacet
  facet normal -1 0 0
    outer loop
      vertex 10.9 15.5 0
      vertex 10.9 15 5.4
      vertex 10.9 15.5 20
    endloop
  endfacet
  facet normal -1 0 0
    outer loop
      vertex 10.9 10.4 5.4
      vertex 10.9 15.5 20
      vertex 10.9 15 5.4
    endloop
  endfacet
  facet normal -1 0 0
    outer loop
      vertex 10.9 8.5 50
      vertex 10.9 15.5 20
      vertex 10.9 10.4 5.4
    endloop
  endfacet
  facet normal -1 0 0
    outer loop
      vertex 10.9 8.5 50
      vertex 10.9 10.4 5.4
      vertex 10.9 8.5 0
    endloop
  endfacet
  facet normal -1 0 0
    outer loop
      vertex 10.9 18 20
      vertex 10.9 8.5 50
      vertex 10.9 18 76
    endloop
  endfacet
  facet normal -1 0 0
    outer loop
      vertex 10.9 4.2 76
      vertex 10.9 8.5 50
      vertex 10.9 6 50
    endloop
  endfacet
  facet normal -1 0 0
    outer loop
      vertex 10.9 8.5 50
      vertex 10.9 4.2 76
      vertex 10.9 18 76
    endloop
  endfacet
  facet normal -1 0 0
    outer loop
      vertex 10.9 4.2 76
      vertex 10.9 6 50
      vertex 10.9 4.2 0
    endloop
  endfacet
  facet normal 0 1 -0
    outer loop
      vertex 29.3 6 0
      vertex 12.7 6 76
      vertex 29.3 6 76
    endloop
  endfacet
  facet normal 0 1 0
    outer loop
      vertex 12.7 6 76
      vertex 29.3 6 0
      vertex 12.7 6 0
    endloop
  endfacet
  facet normal 0 1 0
    outer loop
      vertex 12.7 18 76
      vertex 10.9 18 20
      vertex 10.9 18 76
    endloop
  endfacet
  facet normal 0 1 -0
    outer loop
      vertex 12.7 18 0
      vertex 10.9 18 20
      vertex 12.7 18 76
    endloop
  endfacet
  facet normal 0 1 0
    outer loop
      vertex 12.7 18 0
      vertex 6 18 3
      vertex 10.9 18 20
    endloop
  endfacet
  facet normal 0 1 0
    outer loop
      vertex 6 18 3
      vertex 12.7 18 0
      vertex 6 18 0
    endloop
  endfacet
  facet normal 0 1 0
    outer loop
      vertex 10.9 18 20
      vertex 6 18 3
      vertex 0 18 3
    endloop
  endfacet
  facet normal 1 -0 0
    outer loop
      vertex 31.1 8.5 50
      vertex 31.1 18 20
      vertex 31.1 18 76
    endloop
  endfacet
  facet normal 1 0 0
    outer loop
      vertex 31.1 15.5 20
      vertex 31.1 15 5.4
      vertex 31.1 15.5 0
    endloop
  endfacet
  facet normal 1 0 0
    outer loop
      vertex 31.1 15.5 20
      vertex 31.1 10.4 5.4
      vertex 31.1 15 5.4
    endloop
  endfacet
  facet normal 1 0 0
    outer loop
      vertex 31.1 18 20
      vertex 31.1 8.5 50
      vertex 31.1 15.5 20
    endloop
  endfacet
  facet normal 1 0 0
    outer loop
      vertex 31.1 8.5 0
      vertex 31.1 10.4 5.4
      vertex 31.1 8.5 50
    endloop
  endfacet
  facet normal 1 0 0
    outer loop
      vertex 31.1 15.5 20
      vertex 31.1 8.5 50
      vertex 31.1 10.4 5.4
    endloop
  endfacet
  facet normal 1 -0 0
    outer loop
      vertex 31.1 4.2 76
      vertex 31.1 8.5 50
      vertex 31.1 18 76
    endloop
  endfacet
  facet normal 1 0 0
    outer loop
      vertex 31.1 8.5 50
      vertex 31.1 4.2 76
      vertex 31.1 6 50
    endloop
  endfacet
  facet normal 1 0 0
    outer loop
      vertex 31.1 4.2 0
      vertex 31.1 6 50
      vertex 31.1 4.2 76
    endloop
  endfacet
  facet normal 1 0 0
    outer loop
      vertex 31.1 6 50
      vertex 31.1 4.2 0
      vertex 31.1 6 0
    endloop
  endfacet
  facet normal 1 -0 0
    outer loop
      vertex 31.1 15 3
      vertex 31.1 15.5 0
      vertex 31.1 15 5.4
    endloop
  endfacet
  facet normal 1 -0 0
    outer loop
      vertex 31.1 10.4 3
      vertex 31.1 15.5 0
      vertex 31.1 15 3
    endloop
  endfacet
  facet normal 1 0 0
    outer loop
      vertex 31.1 10.4 3
      vertex 31.1 8.5 0
      vertex 31.1 15.5 0
    endloop
  endfacet
  facet normal 1 0 0
    outer loop
      vertex 31.1 10.4 5.4
      vertex 31.1 8.5 0
      vertex 31.1 10.4 3
    endloop
  endfacet
  facet normal 0 1 -0
    outer loop
      vertex 31.1 18 20
      vertex 29.3 18 76
      vertex 31.1 18 76
    endloop
  endfacet
  facet normal 0 1 -0
    outer loop
      vertex 36 18 3
      vertex 31.1 18 20
      vertex 42 18 3
    endloop
  endfacet
  facet normal 0 1 0
    outer loop
      vertex 29.3 18 0
      vertex 36 18 3
      vertex 36 18 0
    endloop
  endfacet
  facet normal 0 1 0
    outer loop
      vertex 31.1 18 20
      vertex 29.3 18 0
      vertex 29.3 18 76
    endloop
  endfacet
  facet normal 0 1 0
    outer loop
      vertex 36 18 3
      vertex 29.3 18 0
      vertex 31.1 18 20
    endloop
  endfacet
  facet normal -0.974146 0 0.225919
    outer loop
      vertex 0 6 3
      vertex 10.9 8.5 50
      vertex 0 8.5 3
    endloop
  endfacet
  facet normal -0.974146 0 0.225919
    outer loop
      vertex 10.9 8.5 50
      vertex 0 6 3
      vertex 10.9 6 50
    endloop
  endfacet
  facet normal 0 -1 0
    outer loop
      vertex 6 6 3
      vertex 10.9 6 50
      vertex 0 6 3
    endloop
  endfacet
  facet normal 0 -1 0
    outer loop
      vertex 10.9 6 0
      vertex 6 6 3
      vertex 6 6 0
    endloop
  endfacet
  facet normal 0 -1 0
    outer loop
      vertex 6 6 3
      vertex 10.9 6 0
      vertex 10.9 6 50
    endloop
  endfacet
  facet normal 0 1 -0
    outer loop
      vertex 10.9 8.5 0
      vertex 6 8.5 3
      vertex 10.9 8.5 50
    endloop
  endfacet
  facet normal 0 1 0
    outer loop
      vertex 6 8.5 3
      vertex 10.9 8.5 0
      vertex 6 8.5 0
    endloop
  endfacet
  facet normal 0 1 0
    outer loop
      vertex 10.9 8.5 50
      vertex 6 8.5 3
      vertex 0 8.5 3
    endloop
  endfacet
  facet normal 0 -1 0
    outer loop
      vertex 31.1 6 0
      vertex 36 6 3
      vertex 31.1 6 50
    endloop
  endfacet
  facet normal 0 -1 -0
    outer loop
      vertex 36 6 3
      vertex 31.1 6 0
      vertex 36 6 0
    endloop
  endfacet
  facet normal 0 -1 0
    outer loop
      vertex 31.1 6 50
      vertex 36 6 3
      vertex 42 6 3
    endloop
  endfacet
  facet normal 0 1 -0
    outer loop
      vertex 36 8.5 3
      vertex 31.1 8.5 50
      vertex 42 8.5 3
    endloop
  endfacet
  facet normal 0 1 0
    outer loop
      vertex 31.1 8.5 0
      vertex 36 8.5 3
      vertex 36 8.5 0
    endloop
  endfacet
  facet normal 0 1 0
    outer loop
      vertex 36 8.5 3
      vertex 31.1 8.5 0
      vertex 31.1 8.5 50
    endloop
  endfacet
  facet normal 0.974146 -0 0.225919
    outer loop
      vertex 31.1 6 50
      vertex 42 8.5 3
      vertex 31.1 8.5 50
    endloop
  endfacet
  facet normal 0.974146 0 0.225919
    outer loop
      vertex 42 8.5 3
      vertex 31.1 6 50
      vertex 42 6 3
    endloop
  endfacet
  facet normal -0.841821 0 0.539756
    outer loop
      vertex 0 15.5 3
      vertex 10.9 18 20
      vertex 0 18 3
    endloop
  endfacet
  facet normal -0.841821 0 0.539756
    outer loop
      vertex 10.9 18 20
      vertex 0 15.5 3
      vertex 10.9 15.5 20
    endloop
  endfacet
  facet normal 0 -1 0
    outer loop
      vertex 6 15.5 3
      vertex 10.9 15.5 20
      vertex 0 15.5 3
    endloop
  endfacet
  facet normal 0 -1 0
    outer loop
      vertex 10.9 15.5 0
      vertex 6 15.5 3
      vertex 6 15.5 0
    endloop
  endfacet
  facet normal 0 -1 0
    outer loop
      vertex 6 15.5 3
      vertex 10.9 15.5 0
      vertex 10.9 15.5 20
    endloop
  endfacet
  facet normal 0 -1 0
    outer loop
      vertex 31.1 15.5 0
      vertex 36 15.5 3
      vertex 31.1 15.5 20
    endloop
  endfacet
  facet normal 0 -1 -0
    outer loop
      vertex 36 15.5 3
      vertex 31.1 15.5 0
      vertex 36 15.5 0
    endloop
  endfacet
  facet normal 0 -1 0
    outer loop
      vertex 31.1 15.5 20
      vertex 36 15.5 3
      vertex 42 15.5 3
    endloop
  endfacet
  facet normal 0.841821 -0 0.539756
    outer loop
      vertex 31.1 15.5 20
      vertex 42 18 3
      vertex 31.1 18 20
    endloop
  endfacet
  facet normal 0.841821 0 0.539756
    outer loop
      vertex 42 18 3
      vertex 31.1 15.5 20
      vertex 42 15.5 3
    endloop
  endfacet
  facet normal 0 -1 0
    outer loop
      vertex 6 133 0
      vertex 36 133 3
      vertex 6 133 3
    endloop
  endfacet
  facet normal 0 -1 -0
    outer loop
      vertex 36 133 3
      vertex 6 133 0
      vertex 36 133 0
    endloop
  endfacet
  facet normal 0 1 -0
    outer loop
      vertex 36 4 0
      vertex 6 4 3
      vertex 36 4 3
    endloop
  endfacet
  facet normal 0 1 0
    outer loop
      vertex 6 4 3
      vertex 36 4 0
      vertex 6 4 0
    endloop
  endfacet
  facet normal 0 -1 0
    outer loop
      vertex 10.9 4.2 0
      vertex 31.1 4.2 76
      vertex 10.9 4.2 76
    endloop
  endfacet
  facet normal 0 -1 -0
    outer loop
      vertex 31.1 4.2 76
      vertex 10.9 4.2 0
      vertex 31.1 4.2 0
    endloop
  endfacet
  facet normal 0 0 -1
    outer loop
      vertex 10.9 10.4 5.4
      vertex 12.7 15 5.4
      vertex 12.7 10.4 5.4
    endloop
  endfacet
  facet normal -0 0 -1
    outer loop
      vertex 12.7 15 5.4
      vertex 10.9 10.4 5.4
      vertex 10.9 15 5.4
    endloop
  endfacet
  facet normal 0 0 -1
    outer loop
      vertex 29.3 10.4 5.4
      vertex 31.1 15 5.4
      vertex 31.1 10.4 5.4
    endloop
  endfacet
  facet normal -0 0 -1
    outer loop
      vertex 31.1 15 5.4
      vertex 29.3 10.4 5.4
      vertex 29.3 15 5.4
    endloop
  endfacet
  facet normal 0 1 -0
    outer loop
      vertex 12.7 10.4 3
      vertex 10.9 10.4 5.4
      vertex 12.7 10.4 5.4
    endloop
  endfacet
  facet normal 0 1 0
    outer loop
      vertex 10.9 10.4 5.4
      vertex 12.7 10.4 3
      vertex 10.9 10.4 3
    endloop
  endfacet
  facet normal 0 1 -0
    outer loop
      vertex 31.1 10.4 3
      vertex 29.3 10.4 5.4
      vertex 31.1 10.4 5.4
    endloop
  endfacet
  facet normal 0 1 0
    outer loop
      vertex 29.3 10.4 5.4
      vertex 31.1 10.4 3
      vertex 29.3 10.4 3
    endloop
  endfacet
  facet normal 0 -1 0
    outer loop
      vertex 10.9 15 3
      vertex 12.7 15 5.4
      vertex 10.9 15 5.4
    endloop
  endfacet
  facet normal 0 -1 -0
    outer loop
      vertex 12.7 15 5.4
      vertex 10.9 15 3
      vertex 12.7 15 3
    endloop
  endfacet
  facet normal 0 -1 0
    outer loop
      vertex 29.3 15 3
      vertex 31.1 15 5.4
      vertex 29.3 15 5.4
    endloop
  endfacet
  facet normal 0 -1 -0
    outer loop
      vertex 31.1 15 5.4
      vertex 29.3 15 3
      vertex 31.1 15 3
    endloop
  endfacet
  facet normal -0.555611 0.831442 0
    outer loop
      vertex 40.1526 73.2399 0
      vertex 39.5 72.8038 3
      vertex 40.1526 73.2399 3
    endloop
  endfacet
  facet normal -0.555611 0.831442 0
    outer loop
      vertex 39.5 72.8038 3
      vertex 40.1526 73.2399 0
      vertex 39.5 72.8038 0
    endloop
  endfacet
  facet normal 0.0654593 -0.997855 0
    outer loop
      vertex 36 83.9672 0
      vertex 36.5 84 3
      vertex 36 83.9672 3
    endloop
  endfacet
  facet normal 0.0654593 -0.997855 0
    outer loop
      vertex 36.5 84 3
      vertex 36 83.9672 0
      vertex 36.5 84 0
    endloop
  endfacet
  facet normal -0.32146 0.946923 0
    outer loop
      vertex 38.7961 72.4567 0
      vertex 38.0529 72.2044 3
      vertex 38.7961 72.4567 3
    endloop
  endfacet
  facet normal -0.32146 0.946923 0
    outer loop
      vertex 38.0529 72.2044 3
      vertex 38.7961 72.4567 0
      vertex 38.0529 72.2044 0
    endloop
  endfacet
  facet normal -0.831442 -0.555611 -0
    outer loop
      vertex 41.6962 81 3
      vertex 41.2601 81.6526 0
      vertex 41.6962 81 0
    endloop
  endfacet
  facet normal -0.831442 -0.555611 0
    outer loop
      vertex 41.2601 81.6526 0
      vertex 41.6962 81 3
      vertex 41.2601 81.6526 3.33939
    endloop
  endfacet
  facet normal -0.831442 -0.555611 0
    outer loop
      vertex 41.2601 81.6526 3.33939
      vertex 41.6962 81 3
      vertex 41.6962 81 3.13938
    endloop
  endfacet
  facet normal -0.896888 -0.442257 0
    outer loop
      vertex 42 80.3839 0
      vertex 41.6962 81 3
      vertex 41.6962 81 0
    endloop
  endfacet
  facet normal -0.896888 -0.442257 0
    outer loop
      vertex 41.6962 81 3
      vertex 42 80.3839 0
      vertex 42 80.3839 3
    endloop
  endfacet
  facet normal -0.831442 0.555611 0
    outer loop
      vertex 41.2601 74.3474 0
      vertex 41.6962 75 3
      vertex 41.6962 75 0
    endloop
  endfacet
  facet normal -0.831442 0.555611 0
    outer loop
      vertex 41.6962 75 3
      vertex 41.2601 74.3474 0
      vertex 41.2601 74.3474 3
    endloop
  endfacet
  facet normal -0.195087 -0.980786 0
    outer loop
      vertex 37.2832 83.9487 0
      vertex 38.0529 83.7956 3
      vertex 37.2832 83.9487 3
    endloop
  endfacet
  facet normal -0.195087 -0.980786 -0
    outer loop
      vertex 38.0529 83.7956 3
      vertex 37.2832 83.9487 0
      vertex 38.0529 83.7956 0
    endloop
  endfacet
  facet normal 0.555611 -0.831442 0
    outer loop
      vertex 32.8474 82.7601 0
      vertex 33.5 83.1962 6.89908
      vertex 32.8474 82.7601 7.19843
    endloop
  endfacet
  facet normal 0.555611 -0.831442 0
    outer loop
      vertex 33.5 83.1962 6.89908
      vertex 32.8474 82.7601 0
      vertex 33.5 83.1962 0
    endloop
  endfacet
  facet normal -0.195087 0.980786 0
    outer loop
      vertex 38.0529 72.2044 0
      vertex 37.2832 72.0513 3
      vertex 38.0529 72.2044 3
    endloop
  endfacet
  facet normal -0.195087 0.980786 0
    outer loop
      vertex 37.2832 72.0513 3
      vertex 38.0529 72.2044 0
      vertex 37.2832 72.0513 0
    endloop
  endfacet
  facet normal -0.659406 -0.751787 0
    outer loop
      vertex 40.1526 82.7601 0
      vertex 40.7426 82.2426 3.57677
      vertex 40.1526 82.7601 3.84745
    endloop
  endfacet
  facet normal -0.659406 -0.751787 -0
    outer loop
      vertex 40.7426 82.2426 3.57677
      vertex 40.1526 82.7601 0
      vertex 40.7426 82.2426 0
    endloop
  endfacet
  facet normal -0.32146 -0.946923 0
    outer loop
      vertex 38.0529 83.7956 0
      vertex 38.7961 83.5433 3
      vertex 38.0529 83.7956 3
    endloop
  endfacet
  facet normal -0.32146 -0.946923 -0
    outer loop
      vertex 38.7961 83.5433 3
      vertex 38.0529 83.7956 0
      vertex 38.7961 83.5433 0
    endloop
  endfacet
  facet normal 0.659406 -0.751787 0
    outer loop
      vertex 32.2574 82.2426 0
      vertex 32.8474 82.7601 7.19843
      vertex 32.2574 82.2426 7.4691
    endloop
  endfacet
  facet normal 0.659406 -0.751787 0
    outer loop
      vertex 32.8474 82.7601 7.19843
      vertex 32.2574 82.2426 0
      vertex 32.8474 82.7601 0
    endloop
  endfacet
  facet normal -0.751787 -0.659406 -0
    outer loop
      vertex 41.2601 81.6526 3.33939
      vertex 40.7426 82.2426 0
      vertex 41.2601 81.6526 0
    endloop
  endfacet
  facet normal -0.751787 -0.659406 0
    outer loop
      vertex 40.7426 82.2426 0
      vertex 41.2601 81.6526 3.33939
      vertex 40.7426 82.2426 3.57677
    endloop
  endfacet
  facet normal -0.751787 0.659406 0
    outer loop
      vertex 40.7426 73.7574 0
      vertex 41.2601 74.3474 3
      vertex 41.2601 74.3474 0
    endloop
  endfacet
  facet normal -0.751787 0.659406 0
    outer loop
      vertex 41.2601 74.3474 3
      vertex 40.7426 73.7574 0
      vertex 40.7426 73.7574 3
    endloop
  endfacet
  facet normal 0.442257 -0.896888 0
    outer loop
      vertex 33.5 83.1962 0
      vertex 34.1161 83.5 6.61645
      vertex 33.5 83.1962 6.89908
    endloop
  endfacet
  facet normal 0.442257 -0.896888 0
    outer loop
      vertex 34.1161 83.5 6.61645
      vertex 33.5 83.1962 0
      vertex 34.1161 83.5 0
    endloop
  endfacet
  facet normal -0.442263 0.896885 0
    outer loop
      vertex 39.5 72.8038 0
      vertex 38.7961 72.4567 3
      vertex 39.5 72.8038 3
    endloop
  endfacet
  facet normal -0.442263 0.896885 0
    outer loop
      vertex 38.7961 72.4567 3
      vertex 39.5 72.8038 0
      vertex 38.7961 72.4567 0
    endloop
  endfacet
  facet normal 0.751787 -0.659406 0
    outer loop
      vertex 31.7399 81.6526 0
      vertex 32.2574 82.2426 7.4691
      vertex 31.7399 81.6526 7.70648
    endloop
  endfacet
  facet normal 0.751787 -0.659406 0
    outer loop
      vertex 32.2574 82.2426 7.4691
      vertex 31.7399 81.6526 0
      vertex 32.2574 82.2426 0
    endloop
  endfacet
  facet normal -0.0653605 -0.997862 0
    outer loop
      vertex 36.5 84 0
      vertex 37.2832 83.9487 3
      vertex 36.5 84 3
    endloop
  endfacet
  facet normal -0.0653605 -0.997862 -0
    outer loop
      vertex 37.2832 83.9487 3
      vertex 36.5 84 0
      vertex 37.2832 83.9487 0
    endloop
  endfacet
  facet normal -0.896888 0.442257 0
    outer loop
      vertex 41.6962 75 0
      vertex 42 75.6161 3
      vertex 42 75.6161 0
    endloop
  endfacet
  facet normal -0.896888 0.442257 0
    outer loop
      vertex 42 75.6161 3
      vertex 41.6962 75 0
      vertex 41.6962 75 3
    endloop
  endfacet
  facet normal -0.659406 0.751787 0
    outer loop
      vertex 40.7426 73.7574 0
      vertex 40.1526 73.2399 3
      vertex 40.7426 73.7574 3
    endloop
  endfacet
  facet normal -0.659406 0.751787 0
    outer loop
      vertex 40.1526 73.2399 3
      vertex 40.7426 73.7574 0
      vertex 40.1526 73.2399 0
    endloop
  endfacet
  facet normal -0.555611 -0.831442 0
    outer loop
      vertex 39.5 83.1962 0
      vertex 40.1526 82.7601 3.84745
      vertex 39.5 83.1962 4.14679
    endloop
  endfacet
  facet normal -0.555611 -0.831442 -0
    outer loop
      vertex 40.1526 82.7601 3.84745
      vertex 39.5 83.1962 0
      vertex 40.1526 82.7601 0
    endloop
  endfacet
  facet normal -0.442304 -0.896865 -0
    outer loop
      vertex 38.7961 83.5433 3
      vertex 38.7961 83.5433 0
      vertex 38.8839 83.5 3
    endloop
  endfacet
  facet normal -0.442257 -0.896888 0
    outer loop
      vertex 38.8839 83.5 3
      vertex 39.5 83.1962 4.14679
      vertex 38.8839 83.5 4.42942
    endloop
  endfacet
  facet normal -0.442263 -0.896885 -1.48228e-06
    outer loop
      vertex 39.5 83.1962 0
      vertex 38.8839 83.5 3
      vertex 38.7961 83.5433 0
    endloop
  endfacet
  facet normal -0.442257 -0.896888 0
    outer loop
      vertex 38.8839 83.5 3
      vertex 39.5 83.1962 0
      vertex 39.5 83.1962 4.14679
    endloop
  endfacet
  facet normal -0.0653605 0.997862 0
    outer loop
      vertex 37.2832 72.0513 0
      vertex 36.5 72 3
      vertex 37.2832 72.0513 3
    endloop
  endfacet
  facet normal -0.0653605 0.997862 0
    outer loop
      vertex 36.5 72 3
      vertex 37.2832 72.0513 0
      vertex 36.5 72 0
    endloop
  endfacet
  facet normal 0.0654593 0.997855 -0
    outer loop
      vertex 36.5 72 0
      vertex 36 72.0328 3
      vertex 36.5 72 3
    endloop
  endfacet
  facet normal 0.0654593 0.997855 0
    outer loop
      vertex 36 72.0328 3
      vertex 36.5 72 0
      vertex 36 72.0328 0
    endloop
  endfacet
  facet normal 0.831442 -0.555611 0
    outer loop
      vertex 31.3038 81 0
      vertex 31.7399 81.6526 7.70648
      vertex 31.3038 81 7.90649
    endloop
  endfacet
  facet normal 0.831442 -0.555611 0
    outer loop
      vertex 31.7399 81.6526 7.70648
      vertex 31.3038 81 0
      vertex 31.7399 81.6526 0
    endloop
  endfacet
endsolid OpenSCAD_Model
