solid OpenSCAD_Model
  facet normal 1 0 0
    outer loop
      vertex 130.2 5.6 20
      vertex 130.2 0 20
      vertex 130.2 5.6 12
    endloop
  endfacet
  facet normal 1 0 0
    outer loop
      vertex 130.2 69.6 12
      vertex 130.2 44.7161 11
      vertex 130.2 49.4839 11
    endloop
  endfacet
  facet normal 1 -0 0
    outer loop
      vertex 130.2 5.6 12
      vertex 130.2 44.7161 11
      vertex 130.2 69.6 12
    endloop
  endfacet
  facet normal 1 0 0
    outer loop
      vertex 130.2 5.6 12
      vertex 130.2 44.7161 0
      vertex 130.2 44.7161 11
    endloop
  endfacet
  facet normal 1 0 0
    outer loop
      vertex 130.2 5.6 12
      vertex 130.2 0 0
      vertex 130.2 44.7161 0
    endloop
  endfacet
  facet normal 1 0 0
    outer loop
      vertex 130.2 0 0
      vertex 130.2 5.6 12
      vertex 130.2 0 20
    endloop
  endfacet
  facet normal 1 0 0
    outer loop
      vertex 130.2 69.6 12
      vertex 130.2 75.2 20
      vertex 130.2 69.6 20
    endloop
  endfacet
  facet normal 1 0 0
    outer loop
      vertex 130.2 75.2 20
      vertex 130.2 69.6 12
      vertex 130.2 75.2 0
    endloop
  endfacet
  facet normal 1 0 0
    outer loop
      vertex 130.2 49.4839 0
      vertex 130.2 69.6 12
      vertex 130.2 49.4839 11
    endloop
  endfacet
  facet normal 1 0 0
    outer loop
      vertex 130.2 69.6 12
      vertex 130.2 49.4839 0
      vertex 130.2 75.2 0
    endloop
  endfacet
  facet normal 0 0 1
    outer loop
      vertex 130.2 75.2 20
      vertex 128.6 73.6 20
      vertex 130.2 69.6 20
    endloop
  endfacet
  facet normal 0 0 1
    outer loop
      vertex 130.2 75.2 20
      vertex 1.6 73.6 20
      vertex 128.6 73.6 20
    endloop
  endfacet
  facet normal 0 0 1
    outer loop
      vertex 1.6 73.6 20
      vertex 0 75.2 20
      vertex 1.6 1.6 20
    endloop
  endfacet
  facet normal -0 0 1
    outer loop
      vertex 0 75.2 20
      vertex 1.6 73.6 20
      vertex 130.2 75.2 20
    endloop
  endfacet
  facet normal 0 0 1
    outer loop
      vertex 130.2 69.6 20
      vertex 128.6 73.6 20
      vertex 128.6 69.6 20
    endloop
  endfacet
  facet normal 0 0 1
    outer loop
      vertex 128.6 1.6 20
      vertex 130.2 5.6 20
      vertex 128.6 5.6 20
    endloop
  endfacet
  facet normal 0 0 1
    outer loop
      vertex 130.2 5.6 20
      vertex 128.6 1.6 20
      vertex 130.2 0 20
    endloop
  endfacet
  facet normal -0 0 1
    outer loop
      vertex 1.6 1.6 20
      vertex 130.2 0 20
      vertex 128.6 1.6 20
    endloop
  endfacet
  facet normal 0 0 1
    outer loop
      vertex 1.6 1.6 20
      vertex 0 0 20
      vertex 130.2 0 20
    endloop
  endfacet
  facet normal 0 0 1
    outer loop
      vertex 0 0 20
      vertex 1.6 1.6 20
      vertex 0 75.2 20
    endloop
  endfacet
  facet normal 0 0 -1
    outer loop
      vertex 130.2 0 0
      vertex 129.896 44.1 0
      vertex 130.2 44.7161 0
    endloop
  endfacet
  facet normal 0 0 -1
    outer loop
      vertex 130.2 0 0
      vertex 129.46 43.4474 0
      vertex 129.896 44.1 0
    endloop
  endfacet
  facet normal 0 0 -1
    outer loop
      vertex 130.2 0 0
      vertex 128.943 42.8574 0
      vertex 129.46 43.4474 0
    endloop
  endfacet
  facet normal 0 0 -1
    outer loop
      vertex 130.2 0 0
      vertex 128.6 1.6 0
      vertex 128.943 42.8574 0
    endloop
  endfacet
  facet normal 0 0 -1
    outer loop
      vertex 130.2 0 0
      vertex 115.576 1.6 0
      vertex 128.6 1.6 0
    endloop
  endfacet
  facet normal 0 0 -1
    outer loop
      vertex 115.576 1.6 0
      vertex 113.576 1.6 0
      vertex 115.576 73.6 0
    endloop
  endfacet
  facet normal 0 0 -1
    outer loop
      vertex 130.2 0 0
      vertex 113.576 1.6 0
      vertex 115.576 1.6 0
    endloop
  endfacet
  facet normal 0 0 -1
    outer loop
      vertex 130.2 0 0
      vertex 66.1 1.6 0
      vertex 113.576 1.6 0
    endloop
  endfacet
  facet normal 0 0 -1
    outer loop
      vertex 66.1 1.6 0
      vertex 64.1 1.6 0
      vertex 66.1 73.6 0
    endloop
  endfacet
  facet normal 0 0 -1
    outer loop
      vertex 130.2 0 0
      vertex 64.1 1.6 0
      vertex 66.1 1.6 0
    endloop
  endfacet
  facet normal 0 0 -1
    outer loop
      vertex 0 0 0
      vertex 64.1 1.6 0
      vertex 130.2 0 0
    endloop
  endfacet
  facet normal 0 0 -1
    outer loop
      vertex 16.624 1.6 0
      vertex 14.624 1.6 0
      vertex 16.624 73.6 0
    endloop
  endfacet
  facet normal -0 0 -1
    outer loop
      vertex 64.1 1.6 0
      vertex 0 0 0
      vertex 16.624 1.6 0
    endloop
  endfacet
  facet normal -0 0 -1
    outer loop
      vertex 16.624 1.6 0
      vertex 0 0 0
      vertex 14.624 1.6 0
    endloop
  endfacet
  facet normal -0 0 -1
    outer loop
      vertex 1.6 1.6 0
      vertex 0 0 0
      vertex 1.6 73.6 0
    endloop
  endfacet
  facet normal -0 0 -1
    outer loop
      vertex 14.624 1.6 0
      vertex 0 0 0
      vertex 1.6 1.6 0
    endloop
  endfacet
  facet normal 0 0 -1
    outer loop
      vertex 128.943 42.8574 0
      vertex 128.6 1.6 0
      vertex 128.6 42.5569 0
    endloop
  endfacet
  facet normal 0 0 -1
    outer loop
      vertex 129.896 50.1 0
      vertex 130.2 75.2 0
      vertex 130.2 49.4839 0
    endloop
  endfacet
  facet normal 0 0 -1
    outer loop
      vertex 129.46 50.7526 0
      vertex 130.2 75.2 0
      vertex 129.896 50.1 0
    endloop
  endfacet
  facet normal 0 0 -1
    outer loop
      vertex 128.943 51.3426 0
      vertex 130.2 75.2 0
      vertex 129.46 50.7526 0
    endloop
  endfacet
  facet normal 0 0 -1
    outer loop
      vertex 128.6 73.6 0
      vertex 128.943 51.3426 0
      vertex 128.6 51.6431 0
    endloop
  endfacet
  facet normal 0 0 -1
    outer loop
      vertex 128.943 51.3426 0
      vertex 128.6 73.6 0
      vertex 130.2 75.2 0
    endloop
  endfacet
  facet normal 0 0 -1
    outer loop
      vertex 115.576 73.6 0
      vertex 130.2 75.2 0
      vertex 128.6 73.6 0
    endloop
  endfacet
  facet normal 0 0 -1
    outer loop
      vertex 113.576 73.6 0
      vertex 115.576 73.6 0
      vertex 113.576 1.6 0
    endloop
  endfacet
  facet normal 0 0 -1
    outer loop
      vertex 113.576 73.6 0
      vertex 130.2 75.2 0
      vertex 115.576 73.6 0
    endloop
  endfacet
  facet normal 0 0 -1
    outer loop
      vertex 66.1 73.6 0
      vertex 130.2 75.2 0
      vertex 113.576 73.6 0
    endloop
  endfacet
  facet normal 0 0 -1
    outer loop
      vertex 64.1 73.6 0
      vertex 66.1 73.6 0
      vertex 64.1 1.6 0
    endloop
  endfacet
  facet normal 0 0 -1
    outer loop
      vertex 64.1 73.6 0
      vertex 130.2 75.2 0
      vertex 66.1 73.6 0
    endloop
  endfacet
  facet normal 0 0 -1
    outer loop
      vertex 0 75.2 0
      vertex 64.1 73.6 0
      vertex 16.624 73.6 0
    endloop
  endfacet
  facet normal 0 0 -1
    outer loop
      vertex 14.624 73.6 0
      vertex 16.624 73.6 0
      vertex 14.624 1.6 0
    endloop
  endfacet
  facet normal 0 0 -1
    outer loop
      vertex 0 75.2 0
      vertex 16.624 73.6 0
      vertex 14.624 73.6 0
    endloop
  endfacet
  facet normal 0 0 -1
    outer loop
      vertex 0 75.2 0
      vertex 14.624 73.6 0
      vertex 1.6 73.6 0
    endloop
  endfacet
  facet normal 0 0 -1
    outer loop
      vertex 64.1 73.6 0
      vertex 0 75.2 0
      vertex 130.2 75.2 0
    endloop
  endfacet
  facet normal 0 0 -1
    outer loop
      vertex 0 75.2 0
      vertex 1.6 73.6 0
      vertex 0 0 0
    endloop
  endfacet
  facet normal -1 0 0
    outer loop
      vertex 0 0 0
      vertex 0 75.2 20
      vertex 0 75.2 0
    endloop
  endfacet
  facet normal -1 -0 0
    outer loop
      vertex 0 75.2 20
      vertex 0 0 0
      vertex 0 0 20
    endloop
  endfacet
  facet normal 0 1 -0
    outer loop
      vertex 71.61 75.2 2
      vertex 58.59 75.2 9
      vertex 71.61 75.2 9
    endloop
  endfacet
  facet normal 0 1 0
    outer loop
      vertex 58.59 75.2 9
      vertex 71.61 75.2 2
      vertex 58.59 75.2 2
    endloop
  endfacet
  facet normal 0 1 0
    outer loop
      vertex 71.61 75.2 9
      vertex 130.2 75.2 20
      vertex 108.066 75.2 9
    endloop
  endfacet
  facet normal 0 1 -0
    outer loop
      vertex 130.2 75.2 0
      vertex 108.066 75.2 9
      vertex 130.2 75.2 20
    endloop
  endfacet
  facet normal 0 1 0
    outer loop
      vertex 130.2 75.2 0
      vertex 71.61 75.2 2
      vertex 108.066 75.2 2
    endloop
  endfacet
  facet normal 0 1 0
    outer loop
      vertex 71.61 75.2 2
      vertex 130.2 75.2 0
      vertex 58.59 75.2 2
    endloop
  endfacet
  facet normal 0 1 0
    outer loop
      vertex 0 75.2 0
      vertex 58.59 75.2 2
      vertex 130.2 75.2 0
    endloop
  endfacet
  facet normal 0 1 0
    outer loop
      vertex 108.066 75.2 9
      vertex 130.2 75.2 0
      vertex 108.066 75.2 2
    endloop
  endfacet
  facet normal 0 1 0
    outer loop
      vertex 130.2 75.2 20
      vertex 71.61 75.2 9
      vertex 0 75.2 20
    endloop
  endfacet
  facet normal 0 1 -0
    outer loop
      vertex 58.59 75.2 9
      vertex 0 75.2 20
      vertex 71.61 75.2 9
    endloop
  endfacet
  facet normal 0 1 -0
    outer loop
      vertex 22.134 75.2 9
      vertex 0 75.2 20
      vertex 58.59 75.2 9
    endloop
  endfacet
  facet normal 0 1 0
    outer loop
      vertex 0 75.2 0
      vertex 22.134 75.2 9
      vertex 22.134 75.2 2
    endloop
  endfacet
  facet normal 0 1 0
    outer loop
      vertex 22.134 75.2 9
      vertex 0 75.2 0
      vertex 0 75.2 20
    endloop
  endfacet
  facet normal 0 1 0
    outer loop
      vertex 58.59 75.2 2
      vertex 0 75.2 0
      vertex 22.134 75.2 2
    endloop
  endfacet
  facet normal 0 -1 0
    outer loop
      vertex 58.59 0 2
      vertex 71.61 0 9
      vertex 58.59 0 9
    endloop
  endfacet
  facet normal 0 -1 -0
    outer loop
      vertex 71.61 0 9
      vertex 58.59 0 2
      vertex 71.61 0 2
    endloop
  endfacet
  facet normal 0 -1 0
    outer loop
      vertex 58.59 0 9
      vertex 0 0 20
      vertex 22.134 0 9
    endloop
  endfacet
  facet normal 0 -1 0
    outer loop
      vertex 0 0 0
      vertex 22.134 0 9
      vertex 0 0 20
    endloop
  endfacet
  facet normal 0 -1 0
    outer loop
      vertex 0 0 0
      vertex 58.59 0 2
      vertex 22.134 0 2
    endloop
  endfacet
  facet normal 0 -1 -0
    outer loop
      vertex 58.59 0 2
      vertex 0 0 0
      vertex 71.61 0 2
    endloop
  endfacet
  facet normal 0 -1 0
    outer loop
      vertex 130.2 0 0
      vertex 71.61 0 2
      vertex 0 0 0
    endloop
  endfacet
  facet normal 0 -1 -0
    outer loop
      vertex 22.134 0 9
      vertex 0 0 0
      vertex 22.134 0 2
    endloop
  endfacet
  facet normal 0 -1 0
    outer loop
      vertex 0 0 20
      vertex 58.59 0 9
      vertex 130.2 0 20
    endloop
  endfacet
  facet normal 0 -1 0
    outer loop
      vertex 71.61 0 9
      vertex 130.2 0 20
      vertex 58.59 0 9
    endloop
  endfacet
  facet normal 0 -1 0
    outer loop
      vertex 108.066 0 9
      vertex 130.2 0 20
      vertex 71.61 0 9
    endloop
  endfacet
  facet normal 0 -1 0
    outer loop
      vertex 130.2 0 0
      vertex 108.066 0 9
      vertex 108.066 0 2
    endloop
  endfacet
  facet normal 0 -1 0
    outer loop
      vertex 108.066 0 9
      vertex 130.2 0 0
      vertex 130.2 0 20
    endloop
  endfacet
  facet normal 0 -1 0
    outer loop
      vertex 71.61 0 2
      vertex 130.2 0 0
      vertex 108.066 0 2
    endloop
  endfacet
  facet normal -1 0 0
    outer loop
      vertex 128.6 42.5569 0
      vertex 128.6 5.6 12
      vertex 128.6 42.5569 11
    endloop
  endfacet
  facet normal -1 0 0
    outer loop
      vertex 128.6 1.6 0
      vertex 128.6 5.6 12
      vertex 128.6 42.5569 0
    endloop
  endfacet
  facet normal -1 0 0
    outer loop
      vertex 128.6 1.6 20
      vertex 128.6 5.6 12
      vertex 128.6 1.6 0
    endloop
  endfacet
  facet normal -1 0 0
    outer loop
      vertex 128.6 5.6 12
      vertex 128.6 1.6 20
      vertex 128.6 5.6 20
    endloop
  endfacet
  facet normal -1 0 0
    outer loop
      vertex 128.6 73.6 0
      vertex 128.6 69.6 12
      vertex 128.6 73.6 20
    endloop
  endfacet
  facet normal -1 0 0
    outer loop
      vertex 128.6 51.6431 0
      vertex 128.6 69.6 12
      vertex 128.6 73.6 0
    endloop
  endfacet
  facet normal -1 0 0
    outer loop
      vertex 128.6 51.6431 11
      vertex 128.6 69.6 12
      vertex 128.6 51.6431 0
    endloop
  endfacet
  facet normal -1 0 0
    outer loop
      vertex 128.6 42.5569 11
      vertex 128.6 69.6 12
      vertex 128.6 51.6431 11
    endloop
  endfacet
  facet normal -1 -0 0
    outer loop
      vertex 128.6 69.6 12
      vertex 128.6 42.5569 11
      vertex 128.6 5.6 12
    endloop
  endfacet
  facet normal -1 -0 0
    outer loop
      vertex 128.6 73.6 20
      vertex 128.6 69.6 12
      vertex 128.6 69.6 20
    endloop
  endfacet
  facet normal 1 -0 0
    outer loop
      vertex 1.6 1.6 20
      vertex 1.6 73.6 0
      vertex 1.6 73.6 20
    endloop
  endfacet
  facet normal 1 0 0
    outer loop
      vertex 1.6 73.6 0
      vertex 1.6 1.6 20
      vertex 1.6 1.6 0
    endloop
  endfacet
  facet normal 0 -1 0
    outer loop
      vertex 66.1 73.6 12
      vertex 71.61 73.6 9
      vertex 113.576 73.6 12
    endloop
  endfacet
  facet normal 0 -1 0
    outer loop
      vertex 66.1 73.6 0
      vertex 71.61 73.6 9
      vertex 66.1 73.6 12
    endloop
  endfacet
  facet normal 0 -1 -0
    outer loop
      vertex 71.61 73.6 2
      vertex 66.1 73.6 0
      vertex 108.066 73.6 2
    endloop
  endfacet
  facet normal 0 -1 -0
    outer loop
      vertex 71.61 73.6 9
      vertex 66.1 73.6 0
      vertex 71.61 73.6 2
    endloop
  endfacet
  facet normal 0 -1 0
    outer loop
      vertex 16.624 73.6 12
      vertex 22.134 73.6 9
      vertex 64.1 73.6 12
    endloop
  endfacet
  facet normal 0 -1 0
    outer loop
      vertex 16.624 73.6 0
      vertex 22.134 73.6 9
      vertex 16.624 73.6 12
    endloop
  endfacet
  facet normal 0 -1 -0
    outer loop
      vertex 22.134 73.6 2
      vertex 16.624 73.6 0
      vertex 58.59 73.6 2
    endloop
  endfacet
  facet normal 0 -1 -0
    outer loop
      vertex 22.134 73.6 9
      vertex 16.624 73.6 0
      vertex 22.134 73.6 2
    endloop
  endfacet
  facet normal 0 -1 0
    outer loop
      vertex 16.624 73.6 12
      vertex 1.6 73.6 20
      vertex 14.624 73.6 12
    endloop
  endfacet
  facet normal 0 -1 0
    outer loop
      vertex 1.6 73.6 0
      vertex 14.624 73.6 12
      vertex 1.6 73.6 20
    endloop
  endfacet
  facet normal 0 -1 -0
    outer loop
      vertex 14.624 73.6 12
      vertex 1.6 73.6 0
      vertex 14.624 73.6 0
    endloop
  endfacet
  facet normal 0 -1 0
    outer loop
      vertex 64.1 73.6 12
      vertex 1.6 73.6 20
      vertex 16.624 73.6 12
    endloop
  endfacet
  facet normal 0 -1 0
    outer loop
      vertex 1.6 73.6 20
      vertex 64.1 73.6 12
      vertex 128.6 73.6 20
    endloop
  endfacet
  facet normal 0 -1 0
    outer loop
      vertex 66.1 73.6 12
      vertex 128.6 73.6 20
      vertex 64.1 73.6 12
    endloop
  endfacet
  facet normal 0 -1 0
    outer loop
      vertex 113.576 73.6 12
      vertex 128.6 73.6 20
      vertex 66.1 73.6 12
    endloop
  endfacet
  facet normal 0 -1 0
    outer loop
      vertex 115.576 73.6 12
      vertex 128.6 73.6 20
      vertex 113.576 73.6 12
    endloop
  endfacet
  facet normal 0 -1 0
    outer loop
      vertex 128.6 73.6 0
      vertex 115.576 73.6 12
      vertex 115.576 73.6 0
    endloop
  endfacet
  facet normal 0 -1 0
    outer loop
      vertex 115.576 73.6 12
      vertex 128.6 73.6 0
      vertex 128.6 73.6 20
    endloop
  endfacet
  facet normal 0 -1 0
    outer loop
      vertex 58.59 73.6 9
      vertex 64.1 73.6 12
      vertex 22.134 73.6 9
    endloop
  endfacet
  facet normal 0 -1 0
    outer loop
      vertex 64.1 73.6 0
      vertex 58.59 73.6 9
      vertex 58.59 73.6 2
    endloop
  endfacet
  facet normal 0 -1 0
    outer loop
      vertex 58.59 73.6 9
      vertex 64.1 73.6 0
      vertex 64.1 73.6 12
    endloop
  endfacet
  facet normal 0 -1 0
    outer loop
      vertex 64.1 73.6 0
      vertex 58.59 73.6 2
      vertex 16.624 73.6 0
    endloop
  endfacet
  facet normal 0 -1 0
    outer loop
      vertex 108.066 73.6 9
      vertex 113.576 73.6 12
      vertex 71.61 73.6 9
    endloop
  endfacet
  facet normal 0 -1 0
    outer loop
      vertex 113.576 73.6 0
      vertex 108.066 73.6 9
      vertex 108.066 73.6 2
    endloop
  endfacet
  facet normal 0 -1 0
    outer loop
      vertex 108.066 73.6 9
      vertex 113.576 73.6 0
      vertex 113.576 73.6 12
    endloop
  endfacet
  facet normal 0 -1 0
    outer loop
      vertex 113.576 73.6 0
      vertex 108.066 73.6 2
      vertex 66.1 73.6 0
    endloop
  endfacet
  facet normal 0 1 0
    outer loop
      vertex 64.1 1.6 12
      vertex 58.59 1.6 9
      vertex 16.624 1.6 12
    endloop
  endfacet
  facet normal 0 1 -0
    outer loop
      vertex 64.1 1.6 0
      vertex 58.59 1.6 9
      vertex 64.1 1.6 12
    endloop
  endfacet
  facet normal 0 1 0
    outer loop
      vertex 58.59 1.6 2
      vertex 64.1 1.6 0
      vertex 22.134 1.6 2
    endloop
  endfacet
  facet normal 0 1 0
    outer loop
      vertex 58.59 1.6 9
      vertex 64.1 1.6 0
      vertex 58.59 1.6 2
    endloop
  endfacet
  facet normal 0 1 0
    outer loop
      vertex 113.576 1.6 12
      vertex 108.066 1.6 9
      vertex 66.1 1.6 12
    endloop
  endfacet
  facet normal 0 1 -0
    outer loop
      vertex 113.576 1.6 0
      vertex 108.066 1.6 9
      vertex 113.576 1.6 12
    endloop
  endfacet
  facet normal 0 1 0
    outer loop
      vertex 108.066 1.6 2
      vertex 113.576 1.6 0
      vertex 71.61 1.6 2
    endloop
  endfacet
  facet normal 0 1 0
    outer loop
      vertex 108.066 1.6 9
      vertex 113.576 1.6 0
      vertex 108.066 1.6 2
    endloop
  endfacet
  facet normal 0 1 0
    outer loop
      vertex 113.576 1.6 12
      vertex 128.6 1.6 20
      vertex 115.576 1.6 12
    endloop
  endfacet
  facet normal 0 1 -0
    outer loop
      vertex 128.6 1.6 0
      vertex 115.576 1.6 12
      vertex 128.6 1.6 20
    endloop
  endfacet
  facet normal 0 1 0
    outer loop
      vertex 115.576 1.6 12
      vertex 128.6 1.6 0
      vertex 115.576 1.6 0
    endloop
  endfacet
  facet normal 0 1 0
    outer loop
      vertex 66.1 1.6 12
      vertex 128.6 1.6 20
      vertex 113.576 1.6 12
    endloop
  endfacet
  facet normal 0 1 0
    outer loop
      vertex 128.6 1.6 20
      vertex 66.1 1.6 12
      vertex 1.6 1.6 20
    endloop
  endfacet
  facet normal 0 1 -0
    outer loop
      vertex 64.1 1.6 12
      vertex 1.6 1.6 20
      vertex 66.1 1.6 12
    endloop
  endfacet
  facet normal 0 1 -0
    outer loop
      vertex 16.624 1.6 12
      vertex 1.6 1.6 20
      vertex 64.1 1.6 12
    endloop
  endfacet
  facet normal 0 1 -0
    outer loop
      vertex 14.624 1.6 12
      vertex 1.6 1.6 20
      vertex 16.624 1.6 12
    endloop
  endfacet
  facet normal 0 1 0
    outer loop
      vertex 1.6 1.6 0
      vertex 14.624 1.6 12
      vertex 14.624 1.6 0
    endloop
  endfacet
  facet normal 0 1 0
    outer loop
      vertex 14.624 1.6 12
      vertex 1.6 1.6 0
      vertex 1.6 1.6 20
    endloop
  endfacet
  facet normal 0 1 -0
    outer loop
      vertex 71.61 1.6 9
      vertex 66.1 1.6 12
      vertex 108.066 1.6 9
    endloop
  endfacet
  facet normal 0 1 0
    outer loop
      vertex 66.1 1.6 0
      vertex 71.61 1.6 9
      vertex 71.61 1.6 2
    endloop
  endfacet
  facet normal 0 1 0
    outer loop
      vertex 71.61 1.6 9
      vertex 66.1 1.6 0
      vertex 66.1 1.6 12
    endloop
  endfacet
  facet normal 0 1 0
    outer loop
      vertex 66.1 1.6 0
      vertex 71.61 1.6 2
      vertex 113.576 1.6 0
    endloop
  endfacet
  facet normal 0 1 -0
    outer loop
      vertex 22.134 1.6 9
      vertex 16.624 1.6 12
      vertex 58.59 1.6 9
    endloop
  endfacet
  facet normal 0 1 0
    outer loop
      vertex 16.624 1.6 0
      vertex 22.134 1.6 9
      vertex 22.134 1.6 2
    endloop
  endfacet
  facet normal 0 1 0
    outer loop
      vertex 22.134 1.6 9
      vertex 16.624 1.6 0
      vertex 16.624 1.6 12
    endloop
  endfacet
  facet normal 0 1 0
    outer loop
      vertex 16.624 1.6 0
      vertex 22.134 1.6 2
      vertex 64.1 1.6 0
    endloop
  endfacet
  facet normal 1 0 0
    outer loop
      vertex 16.624 72.1 7
      vertex 16.624 73.6 12
      vertex 16.624 72.1 9.4
    endloop
  endfacet
  facet normal 1 0 0
    outer loop
      vertex 16.624 73.6 12
      vertex 16.624 67.5 9.4
      vertex 16.624 72.1 9.4
    endloop
  endfacet
  facet normal 1 0 0
    outer loop
      vertex 16.624 67.5 9.4
      vertex 16.624 7.7 9.4
      vertex 16.624 67.5 7
    endloop
  endfacet
  facet normal 1 0 0
    outer loop
      vertex 16.624 73.6 12
      vertex 16.624 7.7 9.4
      vertex 16.624 67.5 9.4
    endloop
  endfacet
  facet normal 1 -0 0
    outer loop
      vertex 16.624 1.6 12
      vertex 16.624 7.7 9.4
      vertex 16.624 73.6 12
    endloop
  endfacet
  facet normal 1 0 0
    outer loop
      vertex 16.624 3.1 9.4
      vertex 16.624 1.6 12
      vertex 16.624 3.1 7
    endloop
  endfacet
  facet normal 1 0 0
    outer loop
      vertex 16.624 7.7 9.4
      vertex 16.624 1.6 12
      vertex 16.624 3.1 9.4
    endloop
  endfacet
  facet normal 1 0 0
    outer loop
      vertex 16.624 73.6 12
      vertex 16.624 72.1 7
      vertex 16.624 73.6 0
    endloop
  endfacet
  facet normal 1 -0 0
    outer loop
      vertex 16.624 67.5 7
      vertex 16.624 73.6 0
      vertex 16.624 72.1 7
    endloop
  endfacet
  facet normal 1 0 0
    outer loop
      vertex 16.624 7.7 7
      vertex 16.624 67.5 7
      vertex 16.624 7.7 9.4
    endloop
  endfacet
  facet normal 1 0 0
    outer loop
      vertex 16.624 67.5 7
      vertex 16.624 7.7 7
      vertex 16.624 73.6 0
    endloop
  endfacet
  facet normal 1 0 0
    outer loop
      vertex 16.624 1.6 0
      vertex 16.624 7.7 7
      vertex 16.624 3.1 7
    endloop
  endfacet
  facet normal 1 0 0
    outer loop
      vertex 16.624 7.7 7
      vertex 16.624 1.6 0
      vertex 16.624 73.6 0
    endloop
  endfacet
  facet normal 1 0 0
    outer loop
      vertex 16.624 1.6 0
      vertex 16.624 3.1 7
      vertex 16.624 1.6 12
    endloop
  endfacet
  facet normal -0 0 1
    outer loop
      vertex 14.624 73.6 12
      vertex 16.624 1.6 12
      vertex 16.624 73.6 12
    endloop
  endfacet
  facet normal 0 0 1
    outer loop
      vertex 16.624 1.6 12
      vertex 14.624 73.6 12
      vertex 14.624 1.6 12
    endloop
  endfacet
  facet normal -1 0 0
    outer loop
      vertex 14.624 73.6 0
      vertex 14.624 72.1 7
      vertex 14.624 73.6 12
    endloop
  endfacet
  facet normal -1 0 0
    outer loop
      vertex 14.624 73.6 0
      vertex 14.624 67.5 7
      vertex 14.624 72.1 7
    endloop
  endfacet
  facet normal -1 0 0
    outer loop
      vertex 14.624 67.5 7
      vertex 14.624 7.7 7
      vertex 14.624 67.5 9.4
    endloop
  endfacet
  facet normal -1 0 0
    outer loop
      vertex 14.624 73.6 0
      vertex 14.624 7.7 7
      vertex 14.624 67.5 7
    endloop
  endfacet
  facet normal -1 0 0
    outer loop
      vertex 14.624 1.6 0
      vertex 14.624 7.7 7
      vertex 14.624 73.6 0
    endloop
  endfacet
  facet normal -1 0 0
    outer loop
      vertex 14.624 1.6 12
      vertex 14.624 3.1 7
      vertex 14.624 1.6 0
    endloop
  endfacet
  facet normal -1 -0 0
    outer loop
      vertex 14.624 7.7 7
      vertex 14.624 1.6 0
      vertex 14.624 3.1 7
    endloop
  endfacet
  facet normal -1 0 0
    outer loop
      vertex 14.624 72.1 9.4
      vertex 14.624 73.6 12
      vertex 14.624 72.1 7
    endloop
  endfacet
  facet normal -1 0 0
    outer loop
      vertex 14.624 67.5 9.4
      vertex 14.624 73.6 12
      vertex 14.624 72.1 9.4
    endloop
  endfacet
  facet normal -1 0 0
    outer loop
      vertex 14.624 7.7 9.4
      vertex 14.624 67.5 9.4
      vertex 14.624 7.7 7
    endloop
  endfacet
  facet normal -1 0 0
    outer loop
      vertex 14.624 67.5 9.4
      vertex 14.624 7.7 9.4
      vertex 14.624 73.6 12
    endloop
  endfacet
  facet normal -1 0 0
    outer loop
      vertex 14.624 1.6 12
      vertex 14.624 7.7 9.4
      vertex 14.624 3.1 9.4
    endloop
  endfacet
  facet normal -1 0 0
    outer loop
      vertex 14.624 7.7 9.4
      vertex 14.624 1.6 12
      vertex 14.624 73.6 12
    endloop
  endfacet
  facet normal -1 0 0
    outer loop
      vertex 14.624 3.1 7
      vertex 14.624 1.6 12
      vertex 14.624 3.1 9.4
    endloop
  endfacet
  facet normal 1 0 0
    outer loop
      vertex 66.1 72.1 7
      vertex 66.1 73.6 12
      vertex 66.1 72.1 9.4
    endloop
  endfacet
  facet normal 1 0 0
    outer loop
      vertex 66.1 73.6 12
      vertex 66.1 67.5 9.4
      vertex 66.1 72.1 9.4
    endloop
  endfacet
  facet normal 1 0 0
    outer loop
      vertex 66.1 67.5 9.4
      vertex 66.1 7.7 9.4
      vertex 66.1 67.5 7
    endloop
  endfacet
  facet normal 1 0 0
    outer loop
      vertex 66.1 73.6 12
      vertex 66.1 7.7 9.4
      vertex 66.1 67.5 9.4
    endloop
  endfacet
  facet normal 1 -0 0
    outer loop
      vertex 66.1 1.6 12
      vertex 66.1 7.7 9.4
      vertex 66.1 73.6 12
    endloop
  endfacet
  facet normal 1 0 0
    outer loop
      vertex 66.1 3.1 9.4
      vertex 66.1 1.6 12
      vertex 66.1 3.1 7
    endloop
  endfacet
  facet normal 1 0 0
    outer loop
      vertex 66.1 7.7 9.4
      vertex 66.1 1.6 12
      vertex 66.1 3.1 9.4
    endloop
  endfacet
  facet normal 1 0 0
    outer loop
      vertex 66.1 73.6 12
      vertex 66.1 72.1 7
      vertex 66.1 73.6 0
    endloop
  endfacet
  facet normal 1 -0 0
    outer loop
      vertex 66.1 67.5 7
      vertex 66.1 73.6 0
      vertex 66.1 72.1 7
    endloop
  endfacet
  facet normal 1 0 0
    outer loop
      vertex 66.1 7.7 7
      vertex 66.1 67.5 7
      vertex 66.1 7.7 9.4
    endloop
  endfacet
  facet normal 1 0 0
    outer loop
      vertex 66.1 67.5 7
      vertex 66.1 7.7 7
      vertex 66.1 73.6 0
    endloop
  endfacet
  facet normal 1 0 0
    outer loop
      vertex 66.1 1.6 0
      vertex 66.1 7.7 7
      vertex 66.1 3.1 7
    endloop
  endfacet
  facet normal 1 0 0
    outer loop
      vertex 66.1 7.7 7
      vertex 66.1 1.6 0
      vertex 66.1 73.6 0
    endloop
  endfacet
  facet normal 1 0 0
    outer loop
      vertex 66.1 1.6 0
      vertex 66.1 3.1 7
      vertex 66.1 1.6 12
    endloop
  endfacet
  facet normal -0 0 1
    outer loop
      vertex 64.1 73.6 12
      vertex 66.1 1.6 12
      vertex 66.1 73.6 12
    endloop
  endfacet
  facet normal 0 0 1
    outer loop
      vertex 66.1 1.6 12
      vertex 64.1 73.6 12
      vertex 64.1 1.6 12
    endloop
  endfacet
  facet normal -1 0 0
    outer loop
      vertex 64.1 73.6 0
      vertex 64.1 72.1 7
      vertex 64.1 73.6 12
    endloop
  endfacet
  facet normal -1 0 0
    outer loop
      vertex 64.1 73.6 0
      vertex 64.1 67.5 7
      vertex 64.1 72.1 7
    endloop
  endfacet
  facet normal -1 0 0
    outer loop
      vertex 64.1 67.5 7
      vertex 64.1 7.7 7
      vertex 64.1 67.5 9.4
    endloop
  endfacet
  facet normal -1 0 0
    outer loop
      vertex 64.1 73.6 0
      vertex 64.1 7.7 7
      vertex 64.1 67.5 7
    endloop
  endfacet
  facet normal -1 0 0
    outer loop
      vertex 64.1 1.6 0
      vertex 64.1 7.7 7
      vertex 64.1 73.6 0
    endloop
  endfacet
  facet normal -1 0 0
    outer loop
      vertex 64.1 1.6 12
      vertex 64.1 3.1 7
      vertex 64.1 1.6 0
    endloop
  endfacet
  facet normal -1 -0 0
    outer loop
      vertex 64.1 7.7 7
      vertex 64.1 1.6 0
      vertex 64.1 3.1 7
    endloop
  endfacet
  facet normal -1 0 0
    outer loop
      vertex 64.1 72.1 9.4
      vertex 64.1 73.6 12
      vertex 64.1 72.1 7
    endloop
  endfacet
  facet normal -1 0 0
    outer loop
      vertex 64.1 67.5 9.4
      vertex 64.1 73.6 12
      vertex 64.1 72.1 9.4
    endloop
  endfacet
  facet normal -1 0 0
    outer loop
      vertex 64.1 7.7 9.4
      vertex 64.1 67.5 9.4
      vertex 64.1 7.7 7
    endloop
  endfacet
  facet normal -1 0 0
    outer loop
      vertex 64.1 67.5 9.4
      vertex 64.1 7.7 9.4
      vertex 64.1 73.6 12
    endloop
  endfacet
  facet normal -1 0 0
    outer loop
      vertex 64.1 1.6 12
      vertex 64.1 7.7 9.4
      vertex 64.1 3.1 9.4
    endloop
  endfacet
  facet normal -1 0 0
    outer loop
      vertex 64.1 7.7 9.4
      vertex 64.1 1.6 12
      vertex 64.1 73.6 12
    endloop
  endfacet
  facet normal -1 0 0
    outer loop
      vertex 64.1 3.1 7
      vertex 64.1 1.6 12
      vertex 64.1 3.1 9.4
    endloop
  endfacet
  facet normal 1 0 0
    outer loop
      vertex 115.576 72.1 7
      vertex 115.576 73.6 12
      vertex 115.576 72.1 9.4
    endloop
  endfacet
  facet normal 1 0 0
    outer loop
      vertex 115.576 73.6 12
      vertex 115.576 67.5 9.4
      vertex 115.576 72.1 9.4
    endloop
  endfacet
  facet normal 1 0 0
    outer loop
      vertex 115.576 67.5 9.4
      vertex 115.576 7.7 9.4
      vertex 115.576 67.5 7
    endloop
  endfacet
  facet normal 1 0 0
    outer loop
      vertex 115.576 73.6 12
      vertex 115.576 7.7 9.4
      vertex 115.576 67.5 9.4
    endloop
  endfacet
  facet normal 1 -0 0
    outer loop
      vertex 115.576 1.6 12
      vertex 115.576 7.7 9.4
      vertex 115.576 73.6 12
    endloop
  endfacet
  facet normal 1 0 0
    outer loop
      vertex 115.576 3.1 9.4
      vertex 115.576 1.6 12
      vertex 115.576 3.1 7
    endloop
  endfacet
  facet normal 1 0 0
    outer loop
      vertex 115.576 7.7 9.4
      vertex 115.576 1.6 12
      vertex 115.576 3.1 9.4
    endloop
  endfacet
  facet normal 1 0 0
    outer loop
      vertex 115.576 73.6 12
      vertex 115.576 72.1 7
      vertex 115.576 73.6 0
    endloop
  endfacet
  facet normal 1 -0 0
    outer loop
      vertex 115.576 67.5 7
      vertex 115.576 73.6 0
      vertex 115.576 72.1 7
    endloop
  endfacet
  facet normal 1 0 0
    outer loop
      vertex 115.576 7.7 7
      vertex 115.576 67.5 7
      vertex 115.576 7.7 9.4
    endloop
  endfacet
  facet normal 1 0 0
    outer loop
      vertex 115.576 67.5 7
      vertex 115.576 7.7 7
      vertex 115.576 73.6 0
    endloop
  endfacet
  facet normal 1 0 0
    outer loop
      vertex 115.576 1.6 0
      vertex 115.576 7.7 7
      vertex 115.576 3.1 7
    endloop
  endfacet
  facet normal 1 0 0
    outer loop
      vertex 115.576 7.7 7
      vertex 115.576 1.6 0
      vertex 115.576 73.6 0
    endloop
  endfacet
  facet normal 1 0 0
    outer loop
      vertex 115.576 1.6 0
      vertex 115.576 3.1 7
      vertex 115.576 1.6 12
    endloop
  endfacet
  facet normal -0 0 1
    outer loop
      vertex 113.576 73.6 12
      vertex 115.576 1.6 12
      vertex 115.576 73.6 12
    endloop
  endfacet
  facet normal 0 0 1
    outer loop
      vertex 115.576 1.6 12
      vertex 113.576 73.6 12
      vertex 113.576 1.6 12
    endloop
  endfacet
  facet normal -1 0 0
    outer loop
      vertex 113.576 73.6 0
      vertex 113.576 72.1 7
      vertex 113.576 73.6 12
    endloop
  endfacet
  facet normal -1 0 0
    outer loop
      vertex 113.576 73.6 0
      vertex 113.576 67.5 7
      vertex 113.576 72.1 7
    endloop
  endfacet
  facet normal -1 0 0
    outer loop
      vertex 113.576 67.5 7
      vertex 113.576 7.7 7
      vertex 113.576 67.5 9.4
    endloop
  endfacet
  facet normal -1 0 0
    outer loop
      vertex 113.576 73.6 0
      vertex 113.576 7.7 7
      vertex 113.576 67.5 7
    endloop
  endfacet
  facet normal -1 0 0
    outer loop
      vertex 113.576 1.6 0
      vertex 113.576 7.7 7
      vertex 113.576 73.6 0
    endloop
  endfacet
  facet normal -1 0 0
    outer loop
      vertex 113.576 1.6 12
      vertex 113.576 3.1 7
      vertex 113.576 1.6 0
    endloop
  endfacet
  facet normal -1 -0 0
    outer loop
      vertex 113.576 7.7 7
      vertex 113.576 1.6 0
      vertex 113.576 3.1 7
    endloop
  endfacet
  facet normal -1 0 0
    outer loop
      vertex 113.576 72.1 9.4
      vertex 113.576 73.6 12
      vertex 113.576 72.1 7
    endloop
  endfacet
  facet normal -1 0 0
    outer loop
      vertex 113.576 67.5 9.4
      vertex 113.576 73.6 12
      vertex 113.576 72.1 9.4
    endloop
  endfacet
  facet normal -1 0 0
    outer loop
      vertex 113.576 7.7 9.4
      vertex 113.576 67.5 9.4
      vertex 113.576 7.7 7
    endloop
  endfacet
  facet normal -1 0 0
    outer loop
      vertex 113.576 67.5 9.4
      vertex 113.576 7.7 9.4
      vertex 113.576 73.6 12
    endloop
  endfacet
  facet normal -1 0 0
    outer loop
      vertex 113.576 1.6 12
      vertex 113.576 7.7 9.4
      vertex 113.576 3.1 9.4
    endloop
  endfacet
  facet normal -1 0 0
    outer loop
      vertex 113.576 7.7 9.4
      vertex 113.576 1.6 12
      vertex 113.576 73.6 12
    endloop
  endfacet
  facet normal -1 0 0
    outer loop
      vertex 113.576 3.1 7
      vertex 113.576 1.6 12
      vertex 113.576 3.1 9.4
    endloop
  endfacet
  facet normal -1 0 0
    outer loop
      vertex 58.59 73.6 2
      vertex 58.59 75.2 9
      vertex 58.59 75.2 2
    endloop
  endfacet
  facet normal -1 -0 0
    outer loop
      vertex 58.59 75.2 9
      vertex 58.59 73.6 2
      vertex 58.59 73.6 9
    endloop
  endfacet
  facet normal -1 0 0
    outer loop
      vertex 58.59 0 2
      vertex 58.59 1.6 9
      vertex 58.59 1.6 2
    endloop
  endfacet
  facet normal -1 -0 0
    outer loop
      vertex 58.59 1.6 9
      vertex 58.59 0 2
      vertex 58.59 0 9
    endloop
  endfacet
  facet normal 0 0 -1
    outer loop
      vertex 22.134 73.6 9
      vertex 58.59 75.2 9
      vertex 58.59 73.6 9
    endloop
  endfacet
  facet normal -0 0 -1
    outer loop
      vertex 58.59 75.2 9
      vertex 22.134 73.6 9
      vertex 22.134 75.2 9
    endloop
  endfacet
  facet normal 0 0 -1
    outer loop
      vertex 22.134 0 9
      vertex 58.59 1.6 9
      vertex 58.59 0 9
    endloop
  endfacet
  facet normal -0 0 -1
    outer loop
      vertex 58.59 1.6 9
      vertex 22.134 0 9
      vertex 22.134 1.6 9
    endloop
  endfacet
  facet normal -0 0 1
    outer loop
      vertex 22.134 75.2 2
      vertex 58.59 73.6 2
      vertex 58.59 75.2 2
    endloop
  endfacet
  facet normal 0 0 1
    outer loop
      vertex 58.59 73.6 2
      vertex 22.134 75.2 2
      vertex 22.134 73.6 2
    endloop
  endfacet
  facet normal -0 0 1
    outer loop
      vertex 22.134 1.6 2
      vertex 58.59 0 2
      vertex 58.59 1.6 2
    endloop
  endfacet
  facet normal 0 0 1
    outer loop
      vertex 58.59 0 2
      vertex 22.134 1.6 2
      vertex 22.134 0 2
    endloop
  endfacet
  facet normal 1 -0 0
    outer loop
      vertex 22.134 73.6 9
      vertex 22.134 75.2 2
      vertex 22.134 75.2 9
    endloop
  endfacet
  facet normal 1 0 0
    outer loop
      vertex 22.134 75.2 2
      vertex 22.134 73.6 9
      vertex 22.134 73.6 2
    endloop
  endfacet
  facet normal 1 -0 0
    outer loop
      vertex 22.134 0 9
      vertex 22.134 1.6 2
      vertex 22.134 1.6 9
    endloop
  endfacet
  facet normal 1 0 0
    outer loop
      vertex 22.134 1.6 2
      vertex 22.134 0 9
      vertex 22.134 0 2
    endloop
  endfacet
  facet normal -1 0 0
    outer loop
      vertex 108.066 73.6 2
      vertex 108.066 75.2 9
      vertex 108.066 75.2 2
    endloop
  endfacet
  facet normal -1 -0 0
    outer loop
      vertex 108.066 75.2 9
      vertex 108.066 73.6 2
      vertex 108.066 73.6 9
    endloop
  endfacet
  facet normal -1 0 0
    outer loop
      vertex 108.066 0 2
      vertex 108.066 1.6 9
      vertex 108.066 1.6 2
    endloop
  endfacet
  facet normal -1 -0 0
    outer loop
      vertex 108.066 1.6 9
      vertex 108.066 0 2
      vertex 108.066 0 9
    endloop
  endfacet
  facet normal 0 0 -1
    outer loop
      vertex 71.61 73.6 9
      vertex 108.066 75.2 9
      vertex 108.066 73.6 9
    endloop
  endfacet
  facet normal -0 0 -1
    outer loop
      vertex 108.066 75.2 9
      vertex 71.61 73.6 9
      vertex 71.61 75.2 9
    endloop
  endfacet
  facet normal 0 0 -1
    outer loop
      vertex 71.61 0 9
      vertex 108.066 1.6 9
      vertex 108.066 0 9
    endloop
  endfacet
  facet normal -0 0 -1
    outer loop
      vertex 108.066 1.6 9
      vertex 71.61 0 9
      vertex 71.61 1.6 9
    endloop
  endfacet
  facet normal -0 0 1
    outer loop
      vertex 71.61 75.2 2
      vertex 108.066 73.6 2
      vertex 108.066 75.2 2
    endloop
  endfacet
  facet normal 0 0 1
    outer loop
      vertex 108.066 73.6 2
      vertex 71.61 75.2 2
      vertex 71.61 73.6 2
    endloop
  endfacet
  facet normal -0 0 1
    outer loop
      vertex 71.61 1.6 2
      vertex 108.066 0 2
      vertex 108.066 1.6 2
    endloop
  endfacet
  facet normal 0 0 1
    outer loop
      vertex 108.066 0 2
      vertex 71.61 1.6 2
      vertex 71.61 0 2
    endloop
  endfacet
  facet normal 1 -0 0
    outer loop
      vertex 71.61 73.6 9
      vertex 71.61 75.2 2
      vertex 71.61 75.2 9
    endloop
  endfacet
  facet normal 1 0 0
    outer loop
      vertex 71.61 75.2 2
      vertex 71.61 73.6 9
      vertex 71.61 73.6 2
    endloop
  endfacet
  facet normal 1 -0 0
    outer loop
      vertex 71.61 0 9
      vertex 71.61 1.6 2
      vertex 71.61 1.6 9
    endloop
  endfacet
  facet normal 1 0 0
    outer loop
      vertex 71.61 1.6 2
      vertex 71.61 0 9
      vertex 71.61 0 2
    endloop
  endfacet
  facet normal 0 0 -1
    outer loop
      vertex 14.624 3.1 9.4
      vertex 16.624 7.7 9.4
      vertex 16.624 3.1 9.4
    endloop
  endfacet
  facet normal -0 0 -1
    outer loop
      vertex 16.624 7.7 9.4
      vertex 14.624 3.1 9.4
      vertex 14.624 7.7 9.4
    endloop
  endfacet
  facet normal -0 0 1
    outer loop
      vertex 14.624 7.7 7
      vertex 16.624 3.1 7
      vertex 16.624 7.7 7
    endloop
  endfacet
  facet normal 0 0 1
    outer loop
      vertex 16.624 3.1 7
      vertex 14.624 7.7 7
      vertex 14.624 3.1 7
    endloop
  endfacet
  facet normal 0 -1 0
    outer loop
      vertex 14.624 7.7 7
      vertex 16.624 7.7 9.4
      vertex 14.624 7.7 9.4
    endloop
  endfacet
  facet normal 0 -1 -0
    outer loop
      vertex 16.624 7.7 9.4
      vertex 14.624 7.7 7
      vertex 16.624 7.7 7
    endloop
  endfacet
  facet normal 0 1 -0
    outer loop
      vertex 16.624 3.1 7
      vertex 14.624 3.1 9.4
      vertex 16.624 3.1 9.4
    endloop
  endfacet
  facet normal 0 1 0
    outer loop
      vertex 14.624 3.1 9.4
      vertex 16.624 3.1 7
      vertex 14.624 3.1 7
    endloop
  endfacet
  facet normal 0 0 -1
    outer loop
      vertex 14.624 67.5 9.4
      vertex 16.624 72.1 9.4
      vertex 16.624 67.5 9.4
    endloop
  endfacet
  facet normal -0 0 -1
    outer loop
      vertex 16.624 72.1 9.4
      vertex 14.624 67.5 9.4
      vertex 14.624 72.1 9.4
    endloop
  endfacet
  facet normal -0 0 1
    outer loop
      vertex 14.624 72.1 7
      vertex 16.624 67.5 7
      vertex 16.624 72.1 7
    endloop
  endfacet
  facet normal 0 0 1
    outer loop
      vertex 16.624 67.5 7
      vertex 14.624 72.1 7
      vertex 14.624 67.5 7
    endloop
  endfacet
  facet normal 0 -1 0
    outer loop
      vertex 14.624 72.1 7
      vertex 16.624 72.1 9.4
      vertex 14.624 72.1 9.4
    endloop
  endfacet
  facet normal 0 -1 -0
    outer loop
      vertex 16.624 72.1 9.4
      vertex 14.624 72.1 7
      vertex 16.624 72.1 7
    endloop
  endfacet
  facet normal 0 1 -0
    outer loop
      vertex 16.624 67.5 7
      vertex 14.624 67.5 9.4
      vertex 16.624 67.5 9.4
    endloop
  endfacet
  facet normal 0 1 0
    outer loop
      vertex 14.624 67.5 9.4
      vertex 16.624 67.5 7
      vertex 14.624 67.5 7
    endloop
  endfacet
  facet normal 0 0 -1
    outer loop
      vertex 64.1 3.1 9.4
      vertex 66.1 7.7 9.4
      vertex 66.1 3.1 9.4
    endloop
  endfacet
  facet normal -0 0 -1
    outer loop
      vertex 66.1 7.7 9.4
      vertex 64.1 3.1 9.4
      vertex 64.1 7.7 9.4
    endloop
  endfacet
  facet normal -0 0 1
    outer loop
      vertex 64.1 7.7 7
      vertex 66.1 3.1 7
      vertex 66.1 7.7 7
    endloop
  endfacet
  facet normal 0 0 1
    outer loop
      vertex 66.1 3.1 7
      vertex 64.1 7.7 7
      vertex 64.1 3.1 7
    endloop
  endfacet
  facet normal 0 -1 0
    outer loop
      vertex 64.1 7.7 7
      vertex 66.1 7.7 9.4
      vertex 64.1 7.7 9.4
    endloop
  endfacet
  facet normal 0 -1 -0
    outer loop
      vertex 66.1 7.7 9.4
      vertex 64.1 7.7 7
      vertex 66.1 7.7 7
    endloop
  endfacet
  facet normal 0 1 -0
    outer loop
      vertex 66.1 3.1 7
      vertex 64.1 3.1 9.4
      vertex 66.1 3.1 9.4
    endloop
  endfacet
  facet normal 0 1 0
    outer loop
      vertex 64.1 3.1 9.4
      vertex 66.1 3.1 7
      vertex 64.1 3.1 7
    endloop
  endfacet
  facet normal 0 0 -1
    outer loop
      vertex 64.1 67.5 9.4
      vertex 66.1 72.1 9.4
      vertex 66.1 67.5 9.4
    endloop
  endfacet
  facet normal -0 0 -1
    outer loop
      vertex 66.1 72.1 9.4
      vertex 64.1 67.5 9.4
      vertex 64.1 72.1 9.4
    endloop
  endfacet
  facet normal -0 0 1
    outer loop
      vertex 64.1 72.1 7
      vertex 66.1 67.5 7
      vertex 66.1 72.1 7
    endloop
  endfacet
  facet normal 0 0 1
    outer loop
      vertex 66.1 67.5 7
      vertex 64.1 72.1 7
      vertex 64.1 67.5 7
    endloop
  endfacet
  facet normal 0 -1 0
    outer loop
      vertex 64.1 72.1 7
      vertex 66.1 72.1 9.4
      vertex 64.1 72.1 9.4
    endloop
  endfacet
  facet normal 0 -1 -0
    outer loop
      vertex 66.1 72.1 9.4
      vertex 64.1 72.1 7
      vertex 66.1 72.1 7
    endloop
  endfacet
  facet normal 0 1 -0
    outer loop
      vertex 66.1 67.5 7
      vertex 64.1 67.5 9.4
      vertex 66.1 67.5 9.4
    endloop
  endfacet
  facet normal 0 1 0
    outer loop
      vertex 64.1 67.5 9.4
      vertex 66.1 67.5 7
      vertex 64.1 67.5 7
    endloop
  endfacet
  facet normal 0 0 -1
    outer loop
      vertex 113.576 3.1 9.4
      vertex 115.576 7.7 9.4
      vertex 115.576 3.1 9.4
    endloop
  endfacet
  facet normal -0 0 -1
    outer loop
      vertex 115.576 7.7 9.4
      vertex 113.576 3.1 9.4
      vertex 113.576 7.7 9.4
    endloop
  endfacet
  facet normal -0 0 1
    outer loop
      vertex 113.576 7.7 7
      vertex 115.576 3.1 7
      vertex 115.576 7.7 7
    endloop
  endfacet
  facet normal 0 0 1
    outer loop
      vertex 115.576 3.1 7
      vertex 113.576 7.7 7
      vertex 113.576 3.1 7
    endloop
  endfacet
  facet normal 0 -1 0
    outer loop
      vertex 113.576 7.7 7
      vertex 115.576 7.7 9.4
      vertex 113.576 7.7 9.4
    endloop
  endfacet
  facet normal 0 -1 -0
    outer loop
      vertex 115.576 7.7 9.4
      vertex 113.576 7.7 7
      vertex 115.576 7.7 7
    endloop
  endfacet
  facet normal 0 1 -0
    outer loop
      vertex 115.576 3.1 7
      vertex 113.576 3.1 9.4
      vertex 115.576 3.1 9.4
    endloop
  endfacet
  facet normal 0 1 0
    outer loop
      vertex 113.576 3.1 9.4
      vertex 115.576 3.1 7
      vertex 113.576 3.1 7
    endloop
  endfacet
  facet normal 0 0 -1
    outer loop
      vertex 113.576 67.5 9.4
      vertex 115.576 72.1 9.4
      vertex 115.576 67.5 9.4
    endloop
  endfacet
  facet normal -0 0 -1
    outer loop
      vertex 115.576 72.1 9.4
      vertex 113.576 67.5 9.4
      vertex 113.576 72.1 9.4
    endloop
  endfacet
  facet normal -0 0 1
    outer loop
      vertex 113.576 72.1 7
      vertex 115.576 67.5 7
      vertex 115.576 72.1 7
    endloop
  endfacet
  facet normal 0 0 1
    outer loop
      vertex 115.576 67.5 7
      vertex 113.576 72.1 7
      vertex 113.576 67.5 7
    endloop
  endfacet
  facet normal 0 -1 0
    outer loop
      vertex 113.576 72.1 7
      vertex 115.576 72.1 9.4
      vertex 113.576 72.1 9.4
    endloop
  endfacet
  facet normal 0 -1 -0
    outer loop
      vertex 115.576 72.1 9.4
      vertex 113.576 72.1 7
      vertex 115.576 72.1 7
    endloop
  endfacet
  facet normal 0 1 -0
    outer loop
      vertex 115.576 67.5 7
      vertex 113.576 67.5 9.4
      vertex 115.576 67.5 9.4
    endloop
  endfacet
  facet normal 0 1 0
    outer loop
      vertex 113.576 67.5 9.4
      vertex 115.576 67.5 7
      vertex 113.576 67.5 7
    endloop
  endfacet
  facet normal -0 0 1
    outer loop
      vertex 128.6 69.6 12
      vertex 130.2 5.6 12
      vertex 130.2 69.6 12
    endloop
  endfacet
  facet normal 0 0 1
    outer loop
      vertex 130.2 5.6 12
      vertex 128.6 69.6 12
      vertex 128.6 5.6 12
    endloop
  endfacet
  facet normal 0 -1 0
    outer loop
      vertex 128.6 69.6 12
      vertex 130.2 69.6 20
      vertex 128.6 69.6 20
    endloop
  endfacet
  facet normal 0 -1 -0
    outer loop
      vertex 130.2 69.6 20
      vertex 128.6 69.6 12
      vertex 130.2 69.6 12
    endloop
  endfacet
  facet normal 0 1 -0
    outer loop
      vertex 130.2 5.6 12
      vertex 128.6 5.6 20
      vertex 130.2 5.6 20
    endloop
  endfacet
  facet normal 0 1 0
    outer loop
      vertex 128.6 5.6 20
      vertex 130.2 5.6 12
      vertex 128.6 5.6 12
    endloop
  endfacet
  facet normal 0 0 -1
    outer loop
      vertex 129.896 44.1 11
      vertex 130.2 49.4839 11
      vertex 130.2 44.7161 11
    endloop
  endfacet
  facet normal 0 0 -1
    outer loop
      vertex 129.896 44.1 11
      vertex 129.896 50.1 11
      vertex 130.2 49.4839 11
    endloop
  endfacet
  facet normal 0 0 -1
    outer loop
      vertex 129.46 43.4474 11
      vertex 129.896 50.1 11
      vertex 129.896 44.1 11
    endloop
  endfacet
  facet normal 0 0 -1
    outer loop
      vertex 129.46 43.4474 11
      vertex 129.46 50.7526 11
      vertex 129.896 50.1 11
    endloop
  endfacet
  facet normal 0 0 -1
    outer loop
      vertex 128.6 42.5569 11
      vertex 129.46 43.4474 11
      vertex 128.943 42.8574 11
    endloop
  endfacet
  facet normal -0 0 -1
    outer loop
      vertex 129.46 43.4474 11
      vertex 128.6 42.5569 11
      vertex 129.46 50.7526 11
    endloop
  endfacet
  facet normal 0 0 -1
    outer loop
      vertex 128.6 51.6431 11
      vertex 129.46 50.7526 11
      vertex 128.6 42.5569 11
    endloop
  endfacet
  facet normal 0 0 -1
    outer loop
      vertex 129.46 50.7526 11
      vertex 128.6 51.6431 11
      vertex 128.943 51.3426 11
    endloop
  endfacet
  facet normal -0.831501 -0.555523 0
    outer loop
      vertex 129.896 50.1 0
      vertex 129.46 50.7526 11
      vertex 129.46 50.7526 0
    endloop
  endfacet
  facet normal -0.831501 -0.555523 0
    outer loop
      vertex 129.46 50.7526 11
      vertex 129.896 50.1 0
      vertex 129.896 50.1 11
    endloop
  endfacet
  facet normal -0.65897 0.752169 0
    outer loop
      vertex 128.943 42.8574 0
      vertex 128.6 42.5569 11
      vertex 128.943 42.8574 11
    endloop
  endfacet
  facet normal -0.65897 0.752169 0
    outer loop
      vertex 128.6 42.5569 11
      vertex 128.943 42.8574 0
      vertex 128.6 42.5569 0
    endloop
  endfacet
  facet normal -0.752103 -0.659046 0
    outer loop
      vertex 129.46 50.7526 0
      vertex 128.943 51.3426 11
      vertex 128.943 51.3426 0
    endloop
  endfacet
  facet normal -0.752103 -0.659046 0
    outer loop
      vertex 128.943 51.3426 11
      vertex 129.46 50.7526 0
      vertex 129.46 50.7526 11
    endloop
  endfacet
  facet normal -0.896773 0.442491 0
    outer loop
      vertex 129.896 44.1 0
      vertex 130.2 44.7161 11
      vertex 130.2 44.7161 0
    endloop
  endfacet
  facet normal -0.896773 0.442491 0
    outer loop
      vertex 130.2 44.7161 11
      vertex 129.896 44.1 0
      vertex 129.896 44.1 11
    endloop
  endfacet
  facet normal -0.831501 0.555523 0
    outer loop
      vertex 129.46 43.4474 0
      vertex 129.896 44.1 11
      vertex 129.896 44.1 0
    endloop
  endfacet
  facet normal -0.831501 0.555523 0
    outer loop
      vertex 129.896 44.1 11
      vertex 129.46 43.4474 0
      vertex 129.46 43.4474 11
    endloop
  endfacet
  facet normal -0.752103 0.659046 0
    outer loop
      vertex 128.943 42.8574 0
      vertex 129.46 43.4474 11
      vertex 129.46 43.4474 0
    endloop
  endfacet
  facet normal -0.752103 0.659046 0
    outer loop
      vertex 129.46 43.4474 11
      vertex 128.943 42.8574 0
      vertex 128.943 42.8574 11
    endloop
  endfacet
  facet normal -0.65897 -0.752169 0
    outer loop
      vertex 128.6 51.6431 0
      vertex 128.943 51.3426 11
      vertex 128.6 51.6431 11
    endloop
  endfacet
  facet normal -0.65897 -0.752169 -0
    outer loop
      vertex 128.943 51.3426 11
      vertex 128.6 51.6431 0
      vertex 128.943 51.3426 0
    endloop
  endfacet
  facet normal -0.896773 -0.442491 0
    outer loop
      vertex 130.2 49.4839 0
      vertex 129.896 50.1 11
      vertex 129.896 50.1 0
    endloop
  endfacet
  facet normal -0.896773 -0.442491 0
    outer loop
      vertex 129.896 50.1 11
      vertex 130.2 49.4839 0
      vertex 130.2 49.4839 11
    endloop
  endfacet
endsolid OpenSCAD_Model
